#N canvas 0 22 620 349 10;
#X obj 72 254 s voice;
#X obj 72 229 list trim;
#X obj 73 126 list prepend azimuth;
#X obj 115 152 list prepend elevation;
#X obj 160 174 list prepend spread;
#X obj 282 110 list prepend azimuth;
#X obj 315 130 list prepend elevation;
#X obj 363 149 list prepend spread;
#X obj 72 27 inlet;
#X obj 114 26 inlet;
#X obj 154 26 inlet;
#X obj 73 204 list prepend \$1L;
#X obj 230 214 list prepend \$1R;
#X obj 72 85 - 30;
#X obj 282 75 + 30;
#X connect 1 0 0 0;
#X connect 2 0 11 0;
#X connect 3 0 11 0;
#X connect 4 0 11 0;
#X connect 5 0 12 0;
#X connect 6 0 12 0;
#X connect 7 0 12 0;
#X connect 8 0 13 0;
#X connect 8 0 14 0;
#X connect 9 0 3 0;
#X connect 9 0 6 0;
#X connect 10 0 4 0;
#X connect 10 0 7 0;
#X connect 11 0 1 0;
#X connect 12 0 1 0;
#X connect 13 0 2 0;
#X connect 14 0 5 0;
