#N canvas 63 62 450 300 10;
#X obj 48 126 wander \$1 \$2 \$3;
#X obj 152 126 wander \$1 \$2 \$3;
#X obj 258 126 wander \$1 \$2 \$3;
#X obj 49 160 outlet;
#X obj 152 160 outlet;
#X obj 258 160 outlet;
#X obj 303 73 inlet;
#X obj 49 72 inlet;
#X connect 0 0 3 0;
#X connect 1 0 4 0;
#X connect 2 0 5 0;
#X connect 6 0 0 3;
#X connect 6 0 1 3;
#X connect 6 0 2 3;
#X connect 7 0 0 0;
#X connect 7 0 1 0;
#X connect 7 0 2 0;
