#N canvas 141 22 1241 843 10;
#X msg 91 184 \$1 5000;
#X obj 92 163 + 5;
#X obj 92 141 random 5;
#X obj -125 358 pow;
#X floatatom -16 231 5 0 0 0 - - -;
#X obj -16 160 random 200;
#X obj -16 184 - 100;
#X obj -16 207 / 100;
#X obj -71 434 + 100;
#X obj 19 351 random 200;
#X floatatom -71 457 5 0 0 0 - - -;
#X obj -16 252 exp;
#X obj -72 405 * 300;
#X obj -2 291 random 1000;
#X obj -220 487 sin;
#X floatatom -220 516 5 0 0 0 - - -;
#X obj -47 75 t b b b b b;
#X msg 94 393 0;
#X obj 5 442 t f f f;
#X obj -271 159 t b b;
#X msg -162 177 0;
#X obj -271 195 pack 1 8000;
#X obj 12 512 random;
#X floatatom 59 472 5 0 0 0 - - -;
#X obj 60 515 / 2;
#X obj 12 542 -;
#X obj -71 495 t f b;
#X obj -71 536 +;
#X obj -220 552 * 0.1;
#X obj -122 404 t b f;
#X obj -122 451 - 1;
#X obj -122 427 f 1;
#X floatatom -122 504 5 0 0 0 - - -;
#X obj -122 478 * 0.2;
#X obj -205 418 + 10;
#X obj -206 383 random 30;
#X obj -206 228 line 0 15;
#X obj 148 740 list trim;
#X obj 147 778 s iSynth;
#X obj 361 364 pow;
#X floatatom 458 247 5 0 0 0 - - -;
#X obj 458 170 random 200;
#X obj 458 199 - 100;
#X obj 458 222 / 100;
#X obj 363 461 + 100;
#X obj 490 347 random 200;
#X floatatom 363 484 5 0 0 0 - - -;
#X obj 459 273 exp;
#X obj 363 432 * 300;
#X obj 479 309 random 1000;
#X obj 214 511 sin;
#X floatatom 215 543 5 0 0 0 - - -;
#X obj 427 82 t b b b b b;
#X obj 520 453 t f f f;
#X obj 277 160 t b b;
#X msg 409 195 0;
#X obj 255 196 pack 1 8000;
#X obj 432 554 random;
#X floatatom 480 523 5 0 0 0 - - -;
#X obj 480 554 / 2;
#X obj 432 584 -;
#X obj 363 517 t f b;
#X obj 363 570 +;
#X obj 215 594 * 0.1;
#X obj 270 442 t b f;
#X obj 270 494 - 1;
#X obj 270 466 f 1;
#X floatatom 271 542 5 0 0 0 - - -;
#X obj 271 519 * 0.2;
#X obj 230 432 + 10;
#X obj 230 401 random 30;
#X obj 365 246 line 0 15;
#X obj 214 618 list prepend mod2 depth;
#X obj 362 618 list prepend mod2 freq;
#X obj -220 576 list prepend mod1 depth;
#X obj -71 573 list prepend mod1 freq;
#X obj 673 404 line 0 10;
#X obj 670 303 random 400;
#X obj 670 327 + 400;
#X msg 673 380 2000 \, 0 \$1;
#X obj 669 271 r ascend_random_\$1;
#X obj 319 148 r ascend_dur_\$1;
#X obj 92 117 r ascend_hyper_\$1;
#X obj 94 354 r ascend_reset_\$1;
#X obj -208 149 r ascend_dur_\$1;
#X obj 147 709 list prepend \$2;
#X obj 653 791 s amp;
#X obj 653 770 list trim;
#X obj 653 697 line 0 15;
#X msg 614 609 0;
#X obj 653 635 t b b;
#X obj 653 722 pow 0.5;
#X obj 653 666 pack 0 0;
#X obj 613 575 r ascend_reset_\$1;
#X obj 654 604 r ascend_trigger_\$1;
#X obj 653 745 list prepend \$2;
#X obj -220 455 *;
#X obj 214 483 *;
#X obj 775 553 r ascend_dur_\$1;
#X obj 135 44 r ascend_trigger_\$1;
#X msg 511 721 0;
#X obj 565 685 delay;
#X obj 613 689 + 3;
#X obj 832 572 r ascend_stacc;
#X obj 794 638 * 1;
#X obj 809 605 t b f;
#X obj 824 663 r ascend_amp;
#X floatatom 817 723 5 0 0 0 - - -;
#X obj 744 689 f 0.7;
#X obj 822 696 line 0 20;
#X obj 856 613 line 0 20;
#X floatatom 855 637 5 0 0 0 - - -;
#X floatatom 613 717 5 0 0 0 - - -;
#X obj 553 738 t b b;
#X msg 577 764 stop;
#X connect 0 0 36 0;
#X connect 0 0 71 0;
#X connect 1 0 0 0;
#X connect 2 0 1 0;
#X connect 3 0 12 0;
#X connect 3 0 29 0;
#X connect 3 0 96 0;
#X connect 4 0 11 0;
#X connect 5 0 6 0;
#X connect 6 0 7 0;
#X connect 7 0 4 0;
#X connect 8 0 10 0;
#X connect 9 0 8 1;
#X connect 10 0 26 0;
#X connect 11 0 3 1;
#X connect 12 0 8 0;
#X connect 13 0 12 1;
#X connect 14 0 15 0;
#X connect 15 0 28 0;
#X connect 16 0 35 0;
#X connect 16 1 19 0;
#X connect 16 2 5 0;
#X connect 16 3 13 0;
#X connect 16 4 9 0;
#X connect 17 0 18 0;
#X connect 17 0 53 0;
#X connect 18 0 75 0;
#X connect 18 1 74 0;
#X connect 18 2 36 0;
#X connect 19 0 21 0;
#X connect 19 1 20 0;
#X connect 20 0 36 0;
#X connect 21 0 36 0;
#X connect 22 0 25 0;
#X connect 23 0 24 0;
#X connect 23 0 22 1;
#X connect 24 0 25 1;
#X connect 25 0 27 1;
#X connect 26 0 27 0;
#X connect 26 1 22 0;
#X connect 27 0 75 0;
#X connect 28 0 74 0;
#X connect 29 0 31 0;
#X connect 29 1 30 1;
#X connect 30 0 33 0;
#X connect 31 0 30 0;
#X connect 32 0 28 1;
#X connect 33 0 32 0;
#X connect 34 0 96 1;
#X connect 35 0 34 0;
#X connect 36 0 3 0;
#X connect 37 0 38 0;
#X connect 39 0 48 0;
#X connect 39 0 64 0;
#X connect 39 0 97 0;
#X connect 40 0 47 0;
#X connect 41 0 42 0;
#X connect 42 0 43 0;
#X connect 43 0 40 0;
#X connect 44 0 46 0;
#X connect 45 0 44 1;
#X connect 46 0 61 0;
#X connect 47 0 39 1;
#X connect 48 0 44 0;
#X connect 49 0 48 1;
#X connect 50 0 51 0;
#X connect 51 0 63 0;
#X connect 52 0 70 0;
#X connect 52 1 54 0;
#X connect 52 2 41 0;
#X connect 52 3 49 0;
#X connect 52 4 45 0;
#X connect 53 0 73 0;
#X connect 53 1 72 0;
#X connect 53 2 71 0;
#X connect 54 0 56 0;
#X connect 54 1 55 0;
#X connect 55 0 71 0;
#X connect 56 0 71 0;
#X connect 57 0 60 0;
#X connect 58 0 59 0;
#X connect 58 0 57 1;
#X connect 59 0 60 1;
#X connect 60 0 62 1;
#X connect 61 0 62 0;
#X connect 61 1 57 0;
#X connect 62 0 73 0;
#X connect 63 0 72 0;
#X connect 64 0 66 0;
#X connect 64 1 65 1;
#X connect 65 0 68 0;
#X connect 66 0 65 0;
#X connect 67 0 63 1;
#X connect 68 0 67 0;
#X connect 69 0 97 1;
#X connect 70 0 69 0;
#X connect 71 0 39 0;
#X connect 72 0 85 0;
#X connect 73 0 85 0;
#X connect 74 0 85 0;
#X connect 75 0 85 0;
#X connect 76 0 58 0;
#X connect 76 0 23 0;
#X connect 77 0 78 0;
#X connect 78 0 79 0;
#X connect 79 0 76 0;
#X connect 80 0 77 0;
#X connect 81 0 56 1;
#X connect 82 0 2 0;
#X connect 83 0 17 0;
#X connect 84 0 21 1;
#X connect 85 0 37 0;
#X connect 87 0 86 0;
#X connect 88 0 91 0;
#X connect 89 0 88 0;
#X connect 90 0 92 0;
#X connect 90 0 101 0;
#X connect 90 1 108 0;
#X connect 91 0 95 0;
#X connect 92 0 88 0;
#X connect 93 0 89 0;
#X connect 94 0 90 0;
#X connect 95 0 87 0;
#X connect 96 0 14 0;
#X connect 97 0 50 0;
#X connect 98 0 104 0;
#X connect 99 0 16 0;
#X connect 99 0 52 0;
#X connect 100 0 73 0;
#X connect 100 0 72 0;
#X connect 100 0 75 0;
#X connect 100 0 74 0;
#X connect 101 0 113 0;
#X connect 102 0 101 1;
#X connect 102 0 112 0;
#X connect 103 0 110 0;
#X connect 104 0 92 1;
#X connect 104 0 102 0;
#X connect 105 0 104 0;
#X connect 105 1 104 1;
#X connect 106 0 109 0;
#X connect 107 0 108 1;
#X connect 108 0 88 0;
#X connect 109 0 107 0;
#X connect 110 0 111 0;
#X connect 111 0 105 0;
#X connect 113 0 100 0;
#X connect 113 1 114 0;
#X connect 114 0 71 0;
#X connect 114 0 36 0;
