#N canvas 341 23 1015 608 10;
#X declare -lib mrpeach;
#X text 311 180 clear;
#X obj 135 423 textfile;
#X obj 21 380 until;
#X msg 66 363 rewind;
#X floatatom 150 242 5 0 0 0 - - -;
#X obj 21 346 t b b;
#X msg 148 285 read preset_audio/\$1.txt;
#X msg 52 452 print;
#X obj 179 578 textfile;
#X msg -104 504 write preset_audio_tmp/\$1.txt;
#X obj 134 540 list trim;
#X obj 134 514 list prepend add;
#X obj 147 163 until;
#X obj 30 274 t f f;
#X obj 310 466 import mrpeach;
#X obj 135 477 prepend /name;
#X obj 134 450 routeOSC /name /1;
#X obj 111 321 t b a b;
#X msg 160 355 set;
#X msg 144 134 49;
#X obj 152 208 counter 49;
#X msg 243 546 print;
#X connect 1 0 16 0;
#X connect 1 1 2 1;
#X connect 2 0 1 0;
#X connect 3 0 1 0;
#X connect 4 0 13 0;
#X connect 5 0 2 0;
#X connect 5 1 3 0;
#X connect 6 0 17 0;
#X connect 7 0 1 0;
#X connect 9 0 8 0;
#X connect 10 0 8 0;
#X connect 11 0 10 0;
#X connect 12 0 20 0;
#X connect 13 0 9 0;
#X connect 13 1 6 0;
#X connect 15 0 11 0;
#X connect 16 0 15 0;
#X connect 16 1 11 0;
#X connect 17 0 5 0;
#X connect 17 1 1 0;
#X connect 17 2 18 0;
#X connect 18 0 8 0;
#X connect 19 0 12 0;
#X connect 20 0 4 0;
#X connect 21 0 8 0;
