#N canvas 0 64 1402 705 10;
#N canvas 29 96 1249 639 src 0;
#X floatatom 143 130 5 0 0 2 freq - -;
#X floatatom 177 130 5 0 0 2 curve - -;
#X floatatom 212 130 5 0 0 2 depth - -;
#X floatatom 247 130 5 0 0 2 freq - -;
#X floatatom 286 130 5 0 0 2 depth - -;
#X floatatom 106 130 5 0 0 2 freq - -;
#X floatatom 321 130 5 0 0 2 dist - -;
#X floatatom 356 130 5 0 0 2 freq - -;
#X floatatom 392 130 5 0 0 2 curve - -;
#X floatatom 427 130 5 0 0 2 depth - -;
#X obj 53 55 ++;
#X obj 101 55 ++;
#X obj 138 55 ++;
#X obj 177 54 ++;
#X obj 234 55 ++;
#X obj 273 54 ++;
#X obj 309 59 ++;
#X obj 366 59 ++;
#X obj 432 59 ++;
#X obj 470 59 ++;
#X floatatom 41 16 5 0 0 0 - - -;
#X floatatom 75 16 5 0 0 0 - - -;
#X floatatom 110 16 5 0 0 0 - - -;
#X floatatom 144 16 5 0 0 0 - - -;
#X floatatom 179 16 5 0 0 0 - - -;
#X floatatom 213 17 5 0 0 0 - - -;
#X floatatom 248 16 5 0 0 0 - - -;
#X floatatom 282 16 5 0 0 0 - - -;
#X floatatom 317 16 5 0 0 0 - - -;
#X floatatom 351 16 5 0 0 0 - - -;
#X obj 693 -255 route src;
#X floatatom 696 -75 5 0 0 0 - - -;
#X floatatom 730 -75 5 0 0 0 - - -;
#X floatatom 765 -75 5 0 0 0 - - -;
#X floatatom 799 -75 5 0 0 0 - - -;
#X floatatom 834 -75 5 0 0 0 - - -;
#X floatatom 868 -74 5 0 0 0 - - -;
#X floatatom 903 -75 5 0 0 0 - - -;
#X floatatom 937 -75 5 0 0 0 - - -;
#X floatatom 1043 -74 5 0 0 0 - - -;
#X floatatom 1077 -74 5 0 0 0 - - -;
#X obj 779 113 r snapshot_audio;
#X obj 71 -194 routeOSC /freq /curve /depth;
#X obj 152 -173 routeOSC /freq /depth;
#X obj 105 175 s /\$1/src/freq;
#X obj 142 195 s /\$1/src/rnd/freq;
#X obj 176 215 s /\$1/src/rnd/curve;
#X obj 211 237 s /\$1/src/rnd/depth;
#X obj 246 166 s /\$1/src/mod/freq;
#X obj 286 187 s /\$1/src/mod/depth;
#X obj 357 230 s /\$1/src/dist/rnd/freq;
#X obj 394 253 s /\$1/src/dist/rnd/curve;
#X obj 429 274 s /\$1/src/dist/rnd/depth;
#X obj 38 -264 r loader_audio;
#X obj 38 -241 routeOSC /\$1/src;
#X text 137 99 |----random------;
#X text 239 99 |-modulation-;
#X obj 280 -132 routeOSC /freq /curve /depth;
#X obj 246 -152 routeOSC /dist /rnd;
#X text 316 99 |------distortion------;
#X text 455 99 |------dust-------;
#X floatatom 463 130 5 0 0 2 freq - -;
#X floatatom 499 130 5 0 0 2 depth - -;
#X obj 504 62 ++;
#X obj 538 60 ++;
#X obj 573 62 ++;
#X floatatom 537 130 5 0 0 2 decay - -;
#X obj 501 197 s /\$1/src/dust/depth;
#X obj 538 217 s /\$1/src/dust/decay;
#X obj 37 -218 routeOSC /freq /rnd /mod /dist /dust /knee;
#X floatatom 385 15 5 0 0 0 - - -;
#X floatatom 423 16 5 0 0 0 - - -;
#X floatatom 462 15 5 0 0 0 - - -;
#X obj 464 177 s /\$1/src/dust/freq;
#X obj 380 -100 routeOSC /freq /depth /decay;
#X obj 41 -30 intp_rnd_a;
#X obj 75 -10 intp_rnd_a;
#X obj 110 -30 intp_rnd_a;
#X obj 144 -10 intp_rnd_a;
#X obj 179 -30 intp_rnd_a;
#X obj 213 -10 intp_rnd_a;
#X obj 248 -30 intp_rnd_a;
#X obj 282 -10 intp_rnd_a;
#X obj 317 -30 intp_rnd_a;
#X obj 351 -10 intp_rnd_a;
#X obj 384 -34 intp_rnd_a;
#X obj 423 -11 intp_rnd_a;
#X obj 462 -33 intp_rnd_a;
#X obj 323 209 s /\$1/src/dist/dist;
#X obj 692 -281 route \$1;
#X obj 725 -203 route freq curve depth;
#X obj 832 -173 route freq depth;
#X floatatom 1113 -75 5 0 0 0 - - -;
#X obj 901 -147 route dist freq curve depth;
#X floatatom 972 -74 5 0 0 0 - - -;
#X floatatom 1006 -74 5 0 0 0 - - -;
#X obj 692 -306 r iSynth;
#X obj 1047 -123 route freq depth decay;
#X obj 693 -232 route freq rnd mod dist dust;
#X connect 0 0 45 0;
#X connect 1 0 46 0;
#X connect 2 0 47 0;
#X connect 3 0 48 0;
#X connect 4 0 49 0;
#X connect 5 0 44 0;
#X connect 6 0 88 0;
#X connect 7 0 50 0;
#X connect 8 0 51 0;
#X connect 9 0 52 0;
#X connect 10 0 5 0;
#X connect 11 0 0 0;
#X connect 12 0 1 0;
#X connect 13 0 2 0;
#X connect 14 0 3 0;
#X connect 15 0 4 0;
#X connect 16 0 6 0;
#X connect 17 0 7 0;
#X connect 18 0 8 0;
#X connect 19 0 9 0;
#X connect 20 0 10 0;
#X connect 21 0 11 0;
#X connect 22 0 12 0;
#X connect 23 0 13 0;
#X connect 24 0 14 0;
#X connect 25 0 15 0;
#X connect 26 0 16 0;
#X connect 27 0 17 0;
#X connect 28 0 18 0;
#X connect 29 0 19 0;
#X connect 30 0 98 0;
#X connect 31 0 10 1;
#X connect 32 0 11 1;
#X connect 33 0 12 1;
#X connect 34 0 13 1;
#X connect 35 0 14 1;
#X connect 36 0 15 1;
#X connect 37 0 16 1;
#X connect 38 0 17 1;
#X connect 39 0 63 1;
#X connect 40 0 64 1;
#X connect 41 0 9 0;
#X connect 41 0 8 0;
#X connect 41 0 7 0;
#X connect 41 0 6 0;
#X connect 41 0 4 0;
#X connect 41 0 3 0;
#X connect 41 0 2 0;
#X connect 41 0 1 0;
#X connect 41 0 0 0;
#X connect 41 0 5 0;
#X connect 41 0 66 0;
#X connect 41 0 62 0;
#X connect 41 0 61 0;
#X connect 42 0 76 0;
#X connect 42 1 77 0;
#X connect 42 2 78 0;
#X connect 43 0 79 0;
#X connect 43 1 80 0;
#X connect 53 0 54 0;
#X connect 54 0 69 0;
#X connect 57 0 82 0;
#X connect 57 1 83 0;
#X connect 57 2 84 0;
#X connect 58 0 81 0;
#X connect 58 1 57 0;
#X connect 61 0 73 0;
#X connect 62 0 67 0;
#X connect 63 0 61 0;
#X connect 64 0 62 0;
#X connect 65 0 66 0;
#X connect 66 0 68 0;
#X connect 69 0 75 0;
#X connect 69 1 42 0;
#X connect 69 2 43 0;
#X connect 69 3 58 0;
#X connect 69 4 74 0;
#X connect 70 0 63 0;
#X connect 71 0 64 0;
#X connect 72 0 65 0;
#X connect 74 0 85 0;
#X connect 74 1 86 0;
#X connect 74 2 87 0;
#X connect 75 0 20 0;
#X connect 76 0 21 0;
#X connect 77 0 22 0;
#X connect 78 0 23 0;
#X connect 79 0 24 0;
#X connect 80 0 25 0;
#X connect 81 0 26 0;
#X connect 82 0 27 0;
#X connect 83 0 28 0;
#X connect 84 0 29 0;
#X connect 85 0 70 0;
#X connect 86 0 71 0;
#X connect 87 0 72 0;
#X connect 89 0 30 0;
#X connect 90 0 32 0;
#X connect 90 1 33 0;
#X connect 90 2 34 0;
#X connect 91 0 35 0;
#X connect 91 1 36 0;
#X connect 92 0 65 1;
#X connect 93 0 37 0;
#X connect 93 1 38 0;
#X connect 93 2 94 0;
#X connect 93 3 95 0;
#X connect 94 0 18 1;
#X connect 95 0 19 1;
#X connect 96 0 89 0;
#X connect 97 0 39 0;
#X connect 97 1 40 0;
#X connect 97 2 92 0;
#X connect 98 0 31 0;
#X connect 98 1 90 0;
#X connect 98 2 91 0;
#X connect 98 3 93 0;
#X connect 98 4 97 0;
#X coords 0 -1 1 1 550 50 1 100 100;
#X restore 104 119 pd src;
#N canvas 128 398 1402 607 mod 0;
#X floatatom 103 135 5 0 0 2 freq - -;
#X floatatom 137 135 5 0 0 2 curve - -;
#X floatatom 171 135 5 0 0 2 depth - -;
#X floatatom 206 135 5 0 0 2 freq - -;
#X floatatom 240 135 5 0 0 2 coef - -;
#X floatatom 275 135 5 0 0 2 curve - -;
#X floatatom 312 135 5 0 0 2 depth - -;
#X floatatom 346 135 5 0 0 2 freq - -;
#X floatatom 379 135 5 0 0 2 dist - -;
#X floatatom 413 135 5 0 0 2 depth - -;
#X floatatom 448 135 5 0 0 2 freq - -;
#X floatatom 480 135 5 0 0 2 dist - -;
#X floatatom 513 135 5 0 0 2 depth - -;
#X floatatom -292 10 5 0 0 0 - - -;
#X obj 106 70 ++;
#X floatatom -249 11 5 0 0 0 - - -;
#X obj 149 70 ++;
#X floatatom -205 12 5 0 0 0 - - -;
#X obj 193 70 ++;
#X floatatom -133 12 5 0 0 0 - - -;
#X obj 265 70 ++;
#X floatatom -93 13 5 0 0 0 - - -;
#X obj 305 70 ++;
#X floatatom -53 14 5 0 0 0 - - -;
#X obj 345 70 ++;
#X floatatom -13 15 5 0 0 0 - - -;
#X obj 385 70 ++;
#X obj 54 -77 route freq curve depth;
#X obj 213 -78 route freq coef curve depth;
#X obj 54 -103 route rnd logi;
#X floatatom 55 16 5 0 0 0 - - -;
#X floatatom 97 17 5 0 0 0 - - -;
#X floatatom 140 18 5 0 0 0 - - -;
#X floatatom 213 18 5 0 0 0 - - -;
#X floatatom 252 19 5 0 0 0 - - -;
#X floatatom 292 20 5 0 0 0 - - -;
#X floatatom 332 21 5 0 0 0 - - -;
#X obj 880 -40 route freq dist depth;
#X obj 1021 -41 route freq dist depth;
#X floatatom 879 6 5 0 0 0 - - -;
#X floatatom 920 7 5 0 0 0 - - -;
#X floatatom 962 8 5 0 0 0 - - -;
#X floatatom 1021 8 5 0 0 0 - - -;
#X floatatom 1061 9 5 0 0 0 - - -;
#X floatatom 1102 10 5 0 0 0 - - -;
#X floatatom 400 17 5 0 0 0 - - -;
#X floatatom 441 18 5 0 0 0 - - -;
#X floatatom 483 19 5 0 0 0 - - -;
#X floatatom 542 19 5 0 0 0 - - -;
#X floatatom 582 20 5 0 0 0 - - -;
#X floatatom 624 21 5 0 0 0 - - -;
#X obj 447 70 ++;
#X obj 488 70 ++;
#X obj 530 70 ++;
#X obj 589 70 ++;
#X obj 630 70 ++;
#X obj 671 70 ++;
#X obj -69 89 r snapshot_audio;
#X obj 782 120 r snapshot_audio;
#X obj -292 -131 routeOSC /rnd /logi;
#X obj -292 -105 routeOSC /freq /curve /depth;
#X obj -168 -76 routeOSC /freq /coef /curve /depth;
#X obj 391 -80 routeOSC /freq /dist /depth;
#X obj 567 -81 routeOSC /freq /dist /depth;
#X obj 106 174 s /\$1/rnd/freq;
#X obj 139 195 s /\$1/rnd/curve;
#X obj 173 217 s /\$1/rnd/depth;
#X obj 208 172 s /\$1/logi/freq;
#X obj 242 192 s /\$1/logi/coef;
#X obj 278 214 s /\$1/logi/curve;
#X obj 317 237 s /\$1/logi/depth;
#X obj 346 166 s /\$1/mod1/freq;
#X obj 380 185 s /\$1/mod1/dist;
#X obj 414 205 s /\$1/mod1/depth;
#X obj 450 225 s /\$1/mod2/freq;
#X obj 483 244 s /\$1/mod2/dist;
#X obj 516 266 s /\$1/mod2/depth;
#X obj 399 -175 r loader_audio;
#X obj 402 -147 routeOSC /\$1;
#X obj -296 -185 r loader_audio;
#X obj -293 -157 routeOSC /\$1;
#X floatatom 547 135 5 0 0 2 freq - -;
#X floatatom 582 135 5 0 0 2 dist - -;
#X floatatom 616 135 5 0 0 2 depth - -;
#X obj 551 288 s /\$1/mod3/freq;
#X obj 588 309 s /\$1/mod3/dist;
#X obj 624 331 s /\$1/mod3/depth;
#X obj 403 -117 routeOSC /mod1 /mod2 /mod3;
#X obj 707 -55 routeOSC /freq /dist /depth;
#X floatatom 682 21 5 0 0 0 - - -;
#X floatatom 722 22 5 0 0 0 - - -;
#X floatatom 764 23 5 0 0 0 - - -;
#X obj 707 72 ++;
#X obj 748 72 ++;
#X obj 789 72 ++;
#X obj 1173 -36 route freq dist depth;
#X floatatom 1173 13 5 0 0 0 - - -;
#X floatatom 1213 14 5 0 0 0 - - -;
#X floatatom 1254 15 5 0 0 0 - - -;
#X obj 881 -69 route mod1 mod2 mod3;
#X text 341 106 |------mod1------|------mod2------|------mod3----|
;
#X obj -292 -48 intp_rnd_a;
#X obj -249 -26 intp_rnd_a;
#X obj -206 -48 intp_rnd_a;
#X obj -133 -50 intp_rnd_a;
#X obj -94 -29 intp_rnd_a;
#X obj -54 -50 intp_rnd_a;
#X obj -14 -28 intp_rnd_a;
#X obj 401 -49 intp_rnd_a;
#X obj 441 -28 intp_rnd_a;
#X obj 483 -49 intp_rnd_a;
#X obj 543 -28 intp_rnd_a;
#X obj 583 -49 intp_rnd_a;
#X obj 624 -28 intp_rnd_a;
#X obj 683 -2 intp_rnd_a;
#X obj 723 -23 intp_rnd_a;
#X obj 764 -2 intp_rnd_a;
#X obj 884 -121 r iSynth;
#X obj 885 -92 route \$1;
#X obj 57 -142 route \$1;
#X obj 59 -170 r iSynth;
#X connect 0 0 64 0;
#X connect 1 0 65 0;
#X connect 2 0 66 0;
#X connect 3 0 67 0;
#X connect 4 0 68 0;
#X connect 5 0 69 0;
#X connect 6 0 70 0;
#X connect 7 0 71 0;
#X connect 8 0 72 0;
#X connect 9 0 73 0;
#X connect 10 0 74 0;
#X connect 11 0 75 0;
#X connect 12 0 76 0;
#X connect 13 0 14 0;
#X connect 14 0 0 0;
#X connect 15 0 16 0;
#X connect 16 0 1 0;
#X connect 17 0 18 0;
#X connect 18 0 2 0;
#X connect 19 0 20 0;
#X connect 20 0 3 0;
#X connect 21 0 22 0;
#X connect 22 0 4 0;
#X connect 23 0 24 0;
#X connect 24 0 5 0;
#X connect 25 0 26 0;
#X connect 26 0 6 0;
#X connect 27 0 30 0;
#X connect 27 1 31 0;
#X connect 27 2 32 0;
#X connect 28 0 33 0;
#X connect 28 1 34 0;
#X connect 28 2 35 0;
#X connect 28 3 36 0;
#X connect 29 0 27 0;
#X connect 29 1 28 0;
#X connect 30 0 14 1;
#X connect 31 0 16 1;
#X connect 32 0 18 1;
#X connect 33 0 20 1;
#X connect 34 0 22 1;
#X connect 35 0 24 1;
#X connect 36 0 26 1;
#X connect 37 0 39 0;
#X connect 37 1 40 0;
#X connect 37 2 41 0;
#X connect 38 0 42 0;
#X connect 38 1 43 0;
#X connect 38 2 44 0;
#X connect 39 0 51 1;
#X connect 40 0 52 1;
#X connect 41 0 53 1;
#X connect 42 0 54 1;
#X connect 43 0 55 1;
#X connect 44 0 56 1;
#X connect 45 0 51 0;
#X connect 46 0 52 0;
#X connect 47 0 53 0;
#X connect 48 0 54 0;
#X connect 49 0 55 0;
#X connect 50 0 56 0;
#X connect 51 0 7 0;
#X connect 52 0 8 0;
#X connect 53 0 9 0;
#X connect 54 0 10 0;
#X connect 55 0 11 0;
#X connect 56 0 12 0;
#X connect 57 0 0 0;
#X connect 57 0 1 0;
#X connect 57 0 2 0;
#X connect 57 0 3 0;
#X connect 57 0 4 0;
#X connect 57 0 5 0;
#X connect 57 0 6 0;
#X connect 58 0 7 0;
#X connect 58 0 8 0;
#X connect 58 0 9 0;
#X connect 58 0 10 0;
#X connect 58 0 11 0;
#X connect 58 0 12 0;
#X connect 58 0 81 0;
#X connect 58 0 82 0;
#X connect 58 0 83 0;
#X connect 59 0 60 0;
#X connect 59 1 61 0;
#X connect 60 0 101 0;
#X connect 60 1 102 0;
#X connect 60 2 103 0;
#X connect 61 0 104 0;
#X connect 61 1 105 0;
#X connect 61 2 106 0;
#X connect 61 3 107 0;
#X connect 62 0 108 0;
#X connect 62 1 109 0;
#X connect 62 2 110 0;
#X connect 63 0 111 0;
#X connect 63 1 112 0;
#X connect 63 2 113 0;
#X connect 77 0 78 0;
#X connect 78 0 87 0;
#X connect 79 0 80 0;
#X connect 80 0 59 0;
#X connect 81 0 84 0;
#X connect 82 0 85 0;
#X connect 83 0 86 0;
#X connect 87 0 62 0;
#X connect 87 1 63 0;
#X connect 87 2 88 0;
#X connect 88 0 114 0;
#X connect 88 1 115 0;
#X connect 88 2 116 0;
#X connect 89 0 92 0;
#X connect 90 0 93 0;
#X connect 91 0 94 0;
#X connect 92 0 81 0;
#X connect 93 0 82 0;
#X connect 94 0 83 0;
#X connect 95 0 96 0;
#X connect 95 1 97 0;
#X connect 95 2 98 0;
#X connect 96 0 92 1;
#X connect 97 0 93 1;
#X connect 98 0 94 1;
#X connect 99 0 37 0;
#X connect 99 1 38 0;
#X connect 99 2 95 0;
#X connect 101 0 13 0;
#X connect 102 0 15 0;
#X connect 103 0 17 0;
#X connect 104 0 19 0;
#X connect 105 0 21 0;
#X connect 106 0 23 0;
#X connect 107 0 25 0;
#X connect 108 0 45 0;
#X connect 109 0 46 0;
#X connect 110 0 47 0;
#X connect 111 0 48 0;
#X connect 112 0 49 0;
#X connect 113 0 50 0;
#X connect 114 0 89 0;
#X connect 115 0 90 0;
#X connect 116 0 91 0;
#X connect 117 0 118 0;
#X connect 118 0 99 0;
#X connect 119 0 29 0;
#X connect 120 0 119 0;
#X coords 0 -1 1 1 550 60 1 100 100;
#X restore 104 173 pd mod;
#N canvas 231 418 457 432 chorus 0;
#X obj 98 42 inlet~;
#X obj 157 357 outlet~;
#X obj 167 96 osc~ 0.23;
#X obj 232 94 osc~ 0.41;
#X obj 102 96 osc~ 0.12;
#X obj 102 152 +~ 10;
#X obj 183 152 +~ 8;
#X obj 262 152 +~ 12;
#X obj 161 212 +~;
#X obj 158 328 *~;
#X obj 247 312 pack 0 15;
#X obj 247 336 line~;
#X floatatom 247 291 5 0 0 0 - - -;
#X obj 98 71 delwrite~ \$1-time 20;
#X obj 261 180 vd~ \$1-time;
#X obj 101 180 vd~ \$1-time;
#X obj 182 180 vd~ \$1-time;
#X obj 248 263 r /\$1/chorus/amp;
#X obj 102 127 *~ 8;
#X obj 184 126 *~ 7;
#X obj 262 127 *~ 11;
#X obj 348 181 vd~ \$1-time;
#X obj 349 128 *~ 4;
#X obj 349 153 +~ 6;
#X obj 319 95 osc~ 0.33;
#X connect 0 0 13 0;
#X connect 2 0 19 0;
#X connect 3 0 20 0;
#X connect 4 0 18 0;
#X connect 5 0 15 0;
#X connect 6 0 16 0;
#X connect 7 0 14 0;
#X connect 8 0 9 0;
#X connect 9 0 1 0;
#X connect 10 0 11 0;
#X connect 11 0 9 1;
#X connect 12 0 10 0;
#X connect 14 0 8 1;
#X connect 15 0 8 0;
#X connect 16 0 8 1;
#X connect 17 0 12 0;
#X connect 18 0 5 0;
#X connect 19 0 6 0;
#X connect 20 0 7 0;
#X connect 21 0 8 1;
#X connect 22 0 23 0;
#X connect 23 0 21 0;
#X connect 24 0 22 0;
#X restore 129 397 pd chorus;
#N canvas 74 22 724 519 flanger 0;
#X obj 227 172 line~;
#X obj 329 381 outlet~;
#X obj 2 198 inlet~;
#X obj 227 147 pack 0 15;
#X obj 227 206 rand~;
#X obj 228 251 *~;
#X obj 288 148 pack 0 15;
#X obj 288 175 line~;
#X obj 228 227 abs~;
#X obj 321 354 *~;
#X obj 472 375 pack 0 15;
#X obj 472 402 line~;
#X obj 3 231 delwrite~ \$1-flanger 100;
#X obj 227 301 vd~ \$1-flanger 100;
#X obj 224 68 r /\$1/flanger/rnd/freq;
#X obj 414 87 r /\$1/flanger/rnd/depth;
#X obj 471 346 r /\$1/flanger/amp;
#X obj 228 275 clip~ 0.001 100;
#X obj 403 171 line~;
#X obj 403 146 pack 0 15;
#X obj 403 205 rand~;
#X obj 404 250 *~;
#X obj 464 147 pack 0 15;
#X obj 464 174 line~;
#X obj 404 226 abs~;
#X obj 403 300 vd~ \$1-flanger 100;
#X obj 404 274 clip~ 0.001 100;
#X obj 545 167 line~;
#X obj 545 142 pack 0 15;
#X obj 545 201 rand~;
#X obj 546 246 *~;
#X obj 606 143 pack 0 15;
#X obj 606 170 line~;
#X obj 546 222 abs~;
#X obj 545 296 vd~ \$1-flanger 100;
#X obj 546 270 clip~ 0.001 100;
#X connect 0 0 4 0;
#X connect 2 0 12 0;
#X connect 3 0 0 0;
#X connect 4 0 8 0;
#X connect 5 0 17 0;
#X connect 6 0 7 0;
#X connect 7 0 5 1;
#X connect 8 0 5 0;
#X connect 9 0 1 0;
#X connect 10 0 11 0;
#X connect 11 0 9 1;
#X connect 13 0 9 0;
#X connect 14 0 3 0;
#X connect 14 0 19 0;
#X connect 14 0 28 0;
#X connect 15 0 6 0;
#X connect 15 0 22 0;
#X connect 15 0 31 0;
#X connect 16 0 10 0;
#X connect 17 0 13 0;
#X connect 18 0 20 0;
#X connect 19 0 18 0;
#X connect 20 0 24 0;
#X connect 21 0 26 0;
#X connect 22 0 23 0;
#X connect 23 0 21 1;
#X connect 24 0 21 0;
#X connect 25 0 9 0;
#X connect 26 0 25 0;
#X connect 27 0 29 0;
#X connect 28 0 27 0;
#X connect 29 0 33 0;
#X connect 30 0 35 0;
#X connect 31 0 32 0;
#X connect 32 0 30 1;
#X connect 33 0 30 0;
#X connect 34 0 9 0;
#X connect 35 0 34 0;
#X restore 192 398 pd flanger;
#N canvas 245 270 538 488 pepe 0;
#X obj 88 292 *~;
#X obj 133 292 *~;
#X obj 105 233 cos~;
#X obj 147 230 cos~;
#X obj 88 327 +~;
#X obj 108 129 line~;
#X obj 146 382 outlet~;
#X obj 47 202 inlet~;
#X obj 149 205 +~ 0.25;
#X obj 108 104 pack 0 15;
#X obj 109 182 *~;
#X obj 173 130 pack 0 15;
#X obj 174 154 line~;
#X obj 151 354 *~;
#X obj 271 221 pack 0 15;
#X obj 272 245 line~;
#X obj 107 20 r /\$1/pepe/rnd/freq;
#X obj 173 63 r /\$1/pepe/rnd/depth;
#X obj 273 183 r /\$1/pepe/amp;
#X obj 88 264 hilbert~;
#X obj 109 157 osc~;
#X connect 0 0 4 0;
#X connect 1 0 4 1;
#X connect 2 0 0 1;
#X connect 3 0 1 1;
#X connect 4 0 13 0;
#X connect 5 0 20 0;
#X connect 7 0 19 0;
#X connect 8 0 3 0;
#X connect 9 0 5 0;
#X connect 10 0 8 0;
#X connect 10 0 2 0;
#X connect 11 0 12 0;
#X connect 12 0 10 1;
#X connect 13 0 6 0;
#X connect 14 0 15 0;
#X connect 15 0 13 1;
#X connect 16 0 9 0;
#X connect 17 0 11 0;
#X connect 18 0 14 0;
#X connect 19 0 0 0;
#X connect 19 1 1 0;
#X connect 20 0 10 0;
#X restore 261 398 pd pepe;
#N canvas 0 195 1106 642 pshift 0;
#X obj 606 514 outlet~;
#X obj 83 37 inlet~;
#X obj 304 280 *~ 50;
#X obj 277 327 *~;
#X obj 421 144 phasor~ -5;
#X obj 498 289 *~ 50;
#X obj 471 344 *~;
#X obj 361 390 +~;
#X obj 496 188 +~ 0.5;
#X obj 498 212 wrap~;
#X obj 221 259 cos~;
#X obj 221 282 *~ 0.5;
#X obj 555 430 +~;
#X obj 221 237 +~ 0.5;
#X obj 221 304 +~ 0.5;
#X obj 424 268 cos~;
#X obj 424 291 *~ 0.5;
#X obj 424 246 +~ 0.5;
#X obj 424 313 +~ 0.5;
#X obj 425 120 *~;
#X obj 426 88 rand~;
#X obj 428 37 pack 0 15;
#X obj 427 61 line~;
#X obj 565 39 pack 0 15;
#X obj 564 63 line~;
#X obj 730 298 *~ 50;
#X obj 703 345 *~;
#X obj 757 146 phasor~ -5;
#X obj 924 307 *~ 50;
#X obj 897 362 *~;
#X obj 787 408 +~;
#X obj 922 206 +~ 0.5;
#X obj 924 230 wrap~;
#X obj 647 277 cos~;
#X obj 647 300 *~ 0.5;
#X obj 647 255 +~ 0.5;
#X obj 647 322 +~ 0.5;
#X obj 850 286 cos~;
#X obj 850 309 *~ 0.5;
#X obj 850 264 +~ 0.5;
#X obj 850 331 +~ 0.5;
#X obj 761 122 *~;
#X obj 762 90 rand~;
#X obj 764 39 pack 0 15;
#X obj 763 63 line~;
#X obj 82 69 delwrite~ \$1-harmonizer 50;
#X obj 304 303 vd~ \$1-harmonizer;
#X obj 498 312 vd~ \$1-harmonizer;
#X obj 730 321 vd~ \$1-harmonizer;
#X obj 924 330 vd~ \$1-harmonizer;
#X obj 606 481 *~;
#X obj 661 472 pack 0 15;
#X obj 660 496 line~;
#X obj 444 -23 r /\$1/pshift/rnd/freq;
#X obj 616 -24 r /\$1/pshift/rnd/depth;
#X obj 659 447 r /\$1/pshift/amp;
#X connect 1 0 45 0;
#X connect 2 0 46 0;
#X connect 3 0 7 0;
#X connect 4 0 2 0;
#X connect 4 0 8 0;
#X connect 4 0 13 0;
#X connect 5 0 47 0;
#X connect 6 0 7 1;
#X connect 7 0 12 0;
#X connect 8 0 9 0;
#X connect 9 0 5 0;
#X connect 9 0 17 0;
#X connect 10 0 11 0;
#X connect 11 0 14 0;
#X connect 12 0 50 0;
#X connect 13 0 10 0;
#X connect 14 0 3 0;
#X connect 15 0 16 0;
#X connect 16 0 18 0;
#X connect 17 0 15 0;
#X connect 18 0 6 0;
#X connect 19 0 4 0;
#X connect 20 0 19 0;
#X connect 21 0 22 0;
#X connect 22 0 20 0;
#X connect 23 0 24 0;
#X connect 24 0 19 1;
#X connect 24 0 41 1;
#X connect 25 0 48 0;
#X connect 26 0 30 0;
#X connect 27 0 25 0;
#X connect 27 0 31 0;
#X connect 27 0 35 0;
#X connect 28 0 49 0;
#X connect 29 0 30 1;
#X connect 30 0 12 1;
#X connect 31 0 32 0;
#X connect 32 0 28 0;
#X connect 32 0 39 0;
#X connect 33 0 34 0;
#X connect 34 0 36 0;
#X connect 35 0 33 0;
#X connect 36 0 26 0;
#X connect 37 0 38 0;
#X connect 38 0 40 0;
#X connect 39 0 37 0;
#X connect 40 0 29 0;
#X connect 41 0 27 0;
#X connect 42 0 41 0;
#X connect 43 0 44 0;
#X connect 44 0 42 0;
#X connect 46 0 3 1;
#X connect 47 0 6 1;
#X connect 48 0 26 1;
#X connect 49 0 29 1;
#X connect 50 0 0 0;
#X connect 51 0 52 0;
#X connect 52 0 50 1;
#X connect 53 0 21 0;
#X connect 53 0 43 0;
#X connect 54 0 23 0;
#X connect 55 0 51 0;
#X restore 315 397 pd pshift;
#X obj 552 428 pan2;
#N canvas 151 430 465 346 pan 0;
#X obj 38 278 outlet~;
#X obj 39 159 pack 0 15;
#X obj 39 186 line~;
#X obj 111 156 pack 0 15;
#X obj 111 183 line~;
#X obj 181 161 pack 0 15;
#X obj 181 188 line~;
#X obj 111 217 rand~;
#X obj 136 257 *~;
#X obj 39 58 r /\$1/pan/pan;
#X obj 108 86 r /\$1/pan/rnd/freq;
#X obj 179 111 r /\$1/pan/rnd/depth;
#X floatatom 59 105 5 0 0 0 - - -;
#X connect 1 0 2 0;
#X connect 2 0 0 0;
#X connect 3 0 4 0;
#X connect 4 0 7 0;
#X connect 5 0 6 0;
#X connect 6 0 8 1;
#X connect 7 0 8 0;
#X connect 8 0 0 0;
#X connect 9 0 1 0;
#X connect 9 0 12 0;
#X connect 10 0 3 0;
#X connect 11 0 5 0;
#X restore 575 390 pd pan;
#N canvas 464 422 210 221 amp 0;
#X obj 51 152 outlet~;
#X obj 51 103 pack 0 15;
#X obj 51 129 line~;
#X obj 50 68 r /\$1/amp;
#X connect 1 0 2 0;
#X connect 2 0 0 0;
#X connect 3 0 1 0;
#X restore 218 484 pd amp;
#X obj 117 506 *~;
#N canvas 882 425 450 300 sChain 0;
#X obj 85 218 outlet~;
#X obj 110 124 line~;
#X obj 112 -41 inlet~;
#X obj 111 8 dbtorms;
#X obj 112 -17 env~ 128 64;
#X obj 110 98 pack 0 2;
#X obj 204 25 r /\$1/sChain;
#X obj 113 55 *;
#X obj 112 74 clip 0 1;
#X connect 1 0 0 0;
#X connect 2 0 4 0;
#X connect 3 0 7 0;
#X connect 4 0 3 0;
#X connect 5 0 1 0;
#X connect 6 0 7 1;
#X connect 7 0 8 0;
#X connect 8 0 5 0;
#X restore 400 397 pd sChain;
#X obj 176 454 *~;
#N canvas 272 61 948 563 ef 0;
#X obj 260 -169 r loader_audio;
#X obj 260 -146 routeOSC /\$1;
#X floatatom 612 127 5 0 0 0 amp - -;
#X floatatom 613 148 5 0 0 0 rSend - -;
#X obj 538 -22 routeOSC /pan /rnd;
#X floatatom 448 143 5 0 0 2 pan - -;
#X floatatom 482 143 5 0 0 2 freq - -;
#X floatatom 518 143 5 0 0 2 depth - -;
#X floatatom 103 143 5 0 0 2 amp - -;
#X obj 3 3 routeOSC /amp;
#X obj 101 -19 routeOSC /rnd /amp;
#X obj 101 7 routeOSC /freq /depth;
#X floatatom 137 143 5 0 0 2 freq - -;
#X floatatom 172 143 5 0 0 2 depth - -;
#X floatatom 207 143 5 0 0 2 amp - -;
#X text 131 113 |----rnd----|;
#X obj 246 8 routeOSC /freq /depth;
#X obj 238 -24 routeOSC /rnd /amp;
#X floatatom 240 143 5 0 0 2 freq - -;
#X floatatom 275 143 5 0 0 2 depth - -;
#X floatatom 310 143 5 0 0 2 amp - -;
#X text 238 113 |----rnd----|;
#X text 446 102 | pan;
#X text 343 101 | pshift;
#X text 344 113 |----rnd----|;
#X obj 400 -20 routeOSC /rnd /amp;
#X obj 400 7 routeOSC /freq /depth;
#X floatatom 343 143 5 0 0 2 freq - -;
#X floatatom 378 143 5 0 0 2 depth - -;
#X floatatom 413 143 5 0 0 2 amp - -;
#X obj 137 198 s /\$1/flanger/rnd/freq;
#X obj 173 217 s /\$1/flanger/rnd/depth;
#X obj 202 240 s /\$1/flanger/amp;
#X obj 243 263 s /\$1/pepe/rnd/freq;
#X obj 279 283 s /\$1/pepe/rnd/depth;
#X obj 311 305 s /\$1/pepe/amp;
#X obj 422 220 s /\$1/pshift/amp;
#X obj 353 179 s /\$1/pshift/rnd/freq;
#X obj 389 199 s /\$1/pshift/rnd/depth;
#X obj 453 238 s /\$1/pan/pan;
#X obj 489 261 s /\$1/pan/rnd/freq;
#X obj 534 281 s /\$1/pan/rnd/depth;
#X obj 594 187 s /\$1/amp;
#X obj 654 187 s /\$1/revSend;
#X obj 673 -5 routeOSC /freq /depth;
#X obj 103 174 s /\$1/chorus/amp;
#X text 130 101 |flanger;
#X text 237 102 |pepe;
#X floatatom 610 108 5 0 0 0 sChain - -;
#X obj 740 185 s /\$1/sChain;
#X text 98 101 |chrs;
#X obj 754 71 r snapshot_audio;
#X obj -38 129 r snapshot_audio;
#X obj 261 -120 routeOSC /chorus /flanger /pepe /pshift /pan /amp /revSend
/sChain;
#X obj 3 26 intp_rnd_a;
#X obj 101 34 intp_rnd_a;
#X obj 164 34 intp_rnd_a;
#X obj 246 35 intp_rnd_a;
#X obj 309 35 intp_rnd_a;
#X obj 400 33 intp_rnd_a;
#X obj 462 33 intp_rnd_a;
#X obj 455 58 intp_rnd_a;
#X obj 336 56 intp_rnd_a;
#X obj 194 62 intp_rnd_a;
#X obj 537 24 intp_rnd_a;
#X obj 613 31 intp_rnd_a;
#X obj 703 29 intp_rnd_a;
#X obj 818 -26 intp_rnd_a;
#X obj 606 -49 intp_rnd_a;
#X obj 536 -67 intp_rnd_a;
#X obj 752 -156 r iSynth;
#X obj 752 -133 route \$1;
#X obj 752 -110 route pan;
#X obj 752 -87 route pan;
#X obj 547 53 ++;
#X obj 547 76 clip -1 1;
#X obj 748 -59 line 0 15;
#X connect 0 0 1 0;
#X connect 1 0 53 0;
#X connect 2 0 42 0;
#X connect 3 0 43 0;
#X connect 4 0 64 0;
#X connect 4 1 44 0;
#X connect 5 0 39 0;
#X connect 6 0 40 0;
#X connect 7 0 41 0;
#X connect 8 0 45 0;
#X connect 9 0 54 0;
#X connect 10 0 11 0;
#X connect 10 1 63 0;
#X connect 11 0 55 0;
#X connect 11 1 56 0;
#X connect 12 0 30 0;
#X connect 13 0 31 0;
#X connect 14 0 32 0;
#X connect 16 0 57 0;
#X connect 16 1 58 0;
#X connect 17 0 16 0;
#X connect 17 1 62 0;
#X connect 18 0 33 0;
#X connect 19 0 34 0;
#X connect 20 0 35 0;
#X connect 25 0 26 0;
#X connect 25 1 61 0;
#X connect 26 0 59 0;
#X connect 26 1 60 0;
#X connect 27 0 37 0;
#X connect 28 0 38 0;
#X connect 29 0 36 0;
#X connect 44 0 65 0;
#X connect 44 1 66 0;
#X connect 48 0 49 0;
#X connect 51 0 48 0;
#X connect 51 0 2 0;
#X connect 51 0 3 0;
#X connect 52 0 8 0;
#X connect 52 0 12 0;
#X connect 52 0 13 0;
#X connect 52 0 14 0;
#X connect 52 0 18 0;
#X connect 52 0 19 0;
#X connect 52 0 20 0;
#X connect 52 0 27 0;
#X connect 52 0 28 0;
#X connect 52 0 29 0;
#X connect 52 0 5 0;
#X connect 52 0 6 0;
#X connect 52 0 7 0;
#X connect 53 0 9 0;
#X connect 53 1 10 0;
#X connect 53 2 17 0;
#X connect 53 3 25 0;
#X connect 53 4 4 0;
#X connect 53 5 69 0;
#X connect 53 6 68 0;
#X connect 53 7 67 0;
#X connect 54 0 8 0;
#X connect 55 0 12 0;
#X connect 56 0 13 0;
#X connect 57 0 18 0;
#X connect 58 0 19 0;
#X connect 59 0 27 0;
#X connect 60 0 28 0;
#X connect 61 0 29 0;
#X connect 62 0 20 0;
#X connect 63 0 14 0;
#X connect 64 0 74 0;
#X connect 65 0 6 0;
#X connect 66 0 7 0;
#X connect 67 0 48 0;
#X connect 68 0 3 0;
#X connect 69 0 2 0;
#X connect 70 0 71 0;
#X connect 71 0 72 0;
#X connect 72 0 73 0;
#X connect 73 0 76 0;
#X connect 74 0 75 0;
#X connect 75 0 5 0;
#X connect 76 0 74 1;
#X coords 0 -1 1 1 550 70 1 100 100;
#X restore 104 236 pd ef;
#N canvas 429 407 400 299 mainosc 0;
#X obj 146 171 cos~;
#X obj 113 106 +~;
#X obj 146 196 outlet~;
#N canvas 225 124 346 457 logistic 0;
#X floatatom 40 57 5 0 0 0 - - -;
#X obj 41 366 *~;
#X floatatom 95 277 5 0 0 0 - - -;
#X obj 40 82 pack 0 15;
#X obj 40 105 line~;
#X obj 95 301 pack 0 15;
#X obj 95 326 line~;
#X obj 41 398 outlet~;
#X obj 106 162 pack 0 15;
#X obj 106 185 line~;
#X obj 227 180 pack 0 15;
#X obj 227 203 line~;
#X floatatom 106 136 5 0 0 0 - - -;
#X floatatom 227 155 5 0 0 0 - - -;
#X obj 40 31 r /\$1/logi/freq;
#X obj 106 109 r /\$1/logi/coef;
#X obj 95 252 r /\$1/logi/depth;
#X obj 227 129 r /\$1/logi/curve;
#X obj 41 223 tent~;
#X connect 0 0 3 0;
#X connect 1 0 7 0;
#X connect 2 0 5 0;
#X connect 3 0 4 0;
#X connect 4 0 18 0;
#X connect 5 0 6 0;
#X connect 6 0 1 1;
#X connect 8 0 9 0;
#X connect 9 0 18 1;
#X connect 10 0 11 0;
#X connect 11 0 18 2;
#X connect 12 0 8 0;
#X connect 13 0 10 0;
#X connect 14 0 0 0;
#X connect 15 0 12 0;
#X connect 16 0 2 0;
#X connect 17 0 13 0;
#X connect 18 0 1 0;
#X restore 190 58 pd logistic;
#N canvas 373 179 357 374 rand 0;
#X floatatom 40 58 5 0 0 0 - - -;
#X obj 78 273 *~;
#X floatatom 201 179 5 0 0 0 - - -;
#X obj 201 203 pack 0 15;
#X obj 201 228 line~;
#X obj 78 300 outlet~;
#X obj 40 80 pack 0 15;
#X obj 40 103 line~;
#X obj 159 107 pack 0 15;
#X obj 159 130 line~;
#X obj 78 171 crand~;
#X obj 159 84 exp;
#X floatatom 159 60 5 0 0 0 - - -;
#X obj 40 35 r /\$1/rnd/freq;
#X obj 159 36 r /\$1/rnd/curve;
#X obj 202 155 r /\$1/rnd/depth;
#X connect 0 0 6 0;
#X connect 1 0 5 0;
#X connect 2 0 3 0;
#X connect 3 0 4 0;
#X connect 4 0 1 1;
#X connect 6 0 7 0;
#X connect 7 0 10 0;
#X connect 8 0 9 0;
#X connect 9 0 10 1;
#X connect 10 0 1 0;
#X connect 11 0 8 0;
#X connect 12 0 11 0;
#X connect 13 0 0 0;
#X connect 14 0 12 0;
#X connect 15 0 2 0;
#X restore 129 57 pd rand;
#N canvas 0 22 1305 542 carrier 0;
#X floatatom 659 110 5 0 0 0 - - -;
#X obj 618 300 phasor~;
#X obj 659 129 pack 0 15;
#X obj 659 149 line~;
#X obj 1027 197 pack 0 15;
#X obj 1027 217 line~;
#X floatatom 1027 157 5 0 0 0 - - -;
#X obj 820 391 pow~;
#X obj 820 425 outlet~;
#X obj 1027 331 exp~;
#X obj 1121 285 *~;
#X obj 1300 255 pack 0 15;
#X obj 1300 277 line~;
#X floatatom 1300 233 5 0 0 0 - - -;
#X obj 1121 175 pack 0 15;
#X obj 1121 196 line~;
#X floatatom 1121 154 5 0 0 0 - - -;
#X obj 1027 307 +~;
#X obj 1120 239 crand~;
#X obj 1214 213 pack 0 15;
#X obj 1214 235 line~;
#X floatatom 1214 191 5 0 0 0 - - -;
#X obj 528 205 osc~;
#X obj 529 252 *~;
#X floatatom 592 196 5 0 0 0 - - -;
#X obj 592 215 pack 0 15;
#X obj 592 235 line~;
#X floatatom 528 144 5 0 0 0 - - -;
#X obj 528 163 pack 0 15;
#X obj 528 183 line~;
#X obj -68 154 pack 0 15;
#X obj -68 175 line~;
#X floatatom -68 133 5 0 0 0 - - -;
#X obj -68 218 crand~;
#X obj 26 179 pack 0 15;
#X obj 26 201 line~;
#X floatatom 26 157 5 0 0 0 - - -;
#X obj 84 262 *~;
#X floatatom 98 180 5 0 0 0 - - -;
#X obj 98 199 pack 0 15;
#X obj 98 219 line~;
#X obj -68 113 r /\$1/src/rnd/freq;
#X obj 26 135 r /\$1/src/rnd/curve;
#X obj 99 159 r /\$1/src/rnd/depth;
#X obj 528 123 r /\$1/src/mod/freq;
#X obj 593 175 r /\$1/src/mod/depth;
#X obj 662 89 r /\$1/src/freq;
#X obj 1121 134 r /\$1/src/dist/rnd/freq;
#X obj 1214 169 r /\$1/src/dist/rnd/curve;
#X obj 1302 213 r /\$1/src/dist/rnd/depth;
#X floatatom 757 157 5 0 0 0 - - -;
#X floatatom 889 157 5 0 0 0 - - -;
#X floatatom 491 60 5 0 0 0 - - -;
#X obj 491 79 pack 0 15;
#X obj 491 99 line~;
#X obj 491 37 r /\$1/src/dust/depth;
#X obj 387 257 *~;
#X obj 388 300 rampsmooth~;
#X obj 108 -82 r /\$1/src/dust/freq;
#X obj 108 15 pulser~;
#X floatatom 109 -54 5 0 0 0 - - -;
#X obj 108 -30 pack 0 15;
#X obj 238 53 samphold~;
#X obj 309 36 samphold~;
#X floatatom 390 -29 5 0 0 0 - - -;
#X obj 310 -3 pack 0 15;
#X obj 310 17 line~;
#X obj 311 -57 r /\$1/src/dust/decay;
#X floatatom 241 -66 5 0 0 0 - - -;
#X obj 241 -47 pack 0 15;
#X obj 241 -23 line~;
#X obj 239 -86 r /\$1/src/dust/depth;
#X obj 107 -8 line~;
#X obj 760 136 r /\$1/src/knee/thresh;
#X obj 892 136 r /\$1/src/knee/bend;
#X obj 229 120 *~;
#X obj 391 7 clip 0.0001 0.1;
#X obj 1025 106 r /\$1/src/dist/dist;
#X obj 227 82 decay~;
#X connect 0 0 2 0;
#X connect 1 0 7 0;
#X connect 2 0 3 0;
#X connect 3 0 1 0;
#X connect 4 0 5 0;
#X connect 5 0 17 0;
#X connect 6 0 4 0;
#X connect 7 0 8 0;
#X connect 9 0 7 1;
#X connect 10 0 17 1;
#X connect 11 0 12 0;
#X connect 12 0 10 1;
#X connect 13 0 11 0;
#X connect 14 0 15 0;
#X connect 15 0 18 0;
#X connect 16 0 14 0;
#X connect 17 0 9 0;
#X connect 18 0 10 0;
#X connect 19 0 20 0;
#X connect 20 0 18 1;
#X connect 21 0 19 0;
#X connect 22 0 23 0;
#X connect 23 0 1 0;
#X connect 24 0 25 0;
#X connect 25 0 26 0;
#X connect 26 0 23 1;
#X connect 27 0 28 0;
#X connect 28 0 29 0;
#X connect 29 0 22 0;
#X connect 30 0 31 0;
#X connect 31 0 33 0;
#X connect 32 0 30 0;
#X connect 33 0 37 0;
#X connect 34 0 35 0;
#X connect 35 0 33 1;
#X connect 36 0 34 0;
#X connect 37 0 1 0;
#X connect 38 0 39 0;
#X connect 39 0 40 0;
#X connect 40 0 37 1;
#X connect 41 0 32 0;
#X connect 42 0 36 0;
#X connect 43 0 38 0;
#X connect 44 0 27 0;
#X connect 45 0 24 0;
#X connect 46 0 0 0;
#X connect 47 0 16 0;
#X connect 48 0 21 0;
#X connect 49 0 13 0;
#X connect 52 0 53 0;
#X connect 53 0 54 0;
#X connect 54 0 56 1;
#X connect 55 0 52 0;
#X connect 56 0 57 0;
#X connect 57 0 1 0;
#X connect 58 0 60 0;
#X connect 59 0 62 1;
#X connect 59 0 63 1;
#X connect 59 0 78 0;
#X connect 60 0 61 0;
#X connect 61 0 72 0;
#X connect 62 0 75 1;
#X connect 63 0 78 1;
#X connect 64 0 76 0;
#X connect 65 0 66 0;
#X connect 66 0 63 0;
#X connect 67 0 64 0;
#X connect 68 0 69 0;
#X connect 69 0 70 0;
#X connect 70 0 62 0;
#X connect 71 0 68 0;
#X connect 72 0 59 0;
#X connect 73 0 50 0;
#X connect 74 0 51 0;
#X connect 75 0 56 0;
#X connect 76 0 65 0;
#X connect 77 0 6 0;
#X connect 78 0 75 0;
#X restore 46 56 pd carrier;
#X obj 190 107 +~;
#X obj 146 146 +~;
#N canvas 225 124 829 495 sine 0;
#X floatatom 40 57 5 0 0 0 - - -;
#X obj 41 379 *~;
#X obj 41 348 cos~;
#X obj 40 130 phasor~;
#X floatatom 226 307 5 0 0 0 - - -;
#X obj 40 82 pack 0 15;
#X obj 40 105 line~;
#X obj 226 331 pack 0 15;
#X obj 226 356 line~;
#X obj 41 291 pow~;
#X obj 115 134 exp;
#X obj 115 157 pack 0 15;
#X obj 115 178 line~;
#X floatatom 115 112 5 0 0 0 - - -;
#X obj 40 422 outlet~;
#X obj 231 182 cos~;
#X obj 215 129 phasor~;
#X obj 231 214 *~;
#X obj 396 172 pack 0 15;
#X obj 396 199 line~;
#X obj 215 84 pack 0 15;
#X obj 215 107 line~;
#X floatatom 214 62 5 0 0 0 - - -;
#X floatatom 396 142 5 0 0 0 - - -;
#X obj 221 155 pow~;
#X obj 323 76 exp;
#X obj 323 99 pack 0 15;
#X obj 323 120 line~;
#X floatatom 323 53 5 0 0 0 - - -;
#X obj 40 31 r /\$1/mod1/freq;
#X obj 116 90 r /\$1/mod1/dist;
#X obj 215 36 r /\$1/mod2/freq;
#X obj 324 32 r /\$1/mod2/dist;
#X obj 396 116 r /\$1/mod2/depth;
#X obj 226 282 r /\$1/mod1/depth;
#X obj 450 42 cos~;
#X obj 434 -11 phasor~;
#X obj 450 74 *~;
#X obj 615 32 pack 0 15;
#X obj 615 59 line~;
#X obj 434 -56 pack 0 15;
#X obj 434 -33 line~;
#X floatatom 433 -78 5 0 0 0 - - -;
#X floatatom 615 2 5 0 0 0 - - -;
#X obj 440 15 pow~;
#X obj 542 -64 exp;
#X obj 542 -41 pack 0 15;
#X obj 542 -20 line~;
#X floatatom 542 -87 5 0 0 0 - - -;
#X obj 434 -104 r /\$1/mod3/freq;
#X obj 543 -108 r /\$1/mod3/dist;
#X obj 616 -24 r /\$1/mod3/depth;
#X connect 0 0 5 0;
#X connect 1 0 14 0;
#X connect 2 0 1 0;
#X connect 3 0 9 0;
#X connect 4 0 7 0;
#X connect 5 0 6 0;
#X connect 6 0 3 0;
#X connect 7 0 8 0;
#X connect 8 0 1 1;
#X connect 9 0 2 0;
#X connect 10 0 11 0;
#X connect 11 0 12 0;
#X connect 12 0 9 1;
#X connect 13 0 10 0;
#X connect 15 0 17 0;
#X connect 16 0 24 0;
#X connect 17 0 2 0;
#X connect 18 0 19 0;
#X connect 19 0 17 1;
#X connect 20 0 21 0;
#X connect 21 0 16 0;
#X connect 22 0 20 0;
#X connect 23 0 18 0;
#X connect 24 0 15 0;
#X connect 25 0 26 0;
#X connect 26 0 27 0;
#X connect 27 0 24 1;
#X connect 28 0 25 0;
#X connect 29 0 0 0;
#X connect 30 0 13 0;
#X connect 31 0 22 0;
#X connect 32 0 28 0;
#X connect 33 0 23 0;
#X connect 34 0 4 0;
#X connect 35 0 37 0;
#X connect 36 0 44 0;
#X connect 37 0 15 0;
#X connect 38 0 39 0;
#X connect 39 0 37 1;
#X connect 40 0 41 0;
#X connect 41 0 36 0;
#X connect 42 0 40 0;
#X connect 43 0 38 0;
#X connect 44 0 35 0;
#X connect 45 0 46 0;
#X connect 46 0 47 0;
#X connect 47 0 44 1;
#X connect 48 0 45 0;
#X connect 49 0 42 0;
#X connect 50 0 48 0;
#X connect 51 0 43 0;
#X restore 271 58 pd sine;
#X connect 0 0 2 0;
#X connect 1 0 7 0;
#X connect 3 0 6 0;
#X connect 4 0 1 1;
#X connect 5 0 1 0;
#X connect 6 0 7 1;
#X connect 7 0 0 0;
#X connect 8 0 6 1;
#X restore 113 345 pd mainosc;
#X obj 664 16 r amp;
#X obj 665 61 route \$1;
#X obj 663 91 line 0 15;
#X floatatom 663 255 5 0 0 0 - - -;
#X obj 663 120 vsl 30 120 0 1 0 0 empty empty empty 0 -9 0 10 -261682
-1 -1 0 1;
#X obj 563 479 *~;
#X obj 649 479 *~;
#X obj 663 374 pack 0 15;
#X obj 663 396 line~;
#X obj 663 349 *;
#X obj 663 321 t f f;
#X obj 816 514 outlet~;
#X obj 561 527 outlet~;
#X obj 632 526 outlet~;
#X connect 2 0 11 0;
#X connect 3 0 11 0;
#X connect 4 0 11 0;
#X connect 5 0 11 0;
#X connect 6 0 19 0;
#X connect 6 1 20 0;
#X connect 7 0 6 1;
#X connect 8 0 9 1;
#X connect 9 0 6 0;
#X connect 10 0 11 1;
#X connect 11 0 9 0;
#X connect 13 0 2 0;
#X connect 13 0 3 0;
#X connect 13 0 4 0;
#X connect 13 0 5 0;
#X connect 13 0 9 0;
#X connect 13 0 10 0;
#X connect 14 0 15 0;
#X connect 15 0 16 0;
#X connect 16 0 18 0;
#X connect 17 0 24 0;
#X connect 18 0 17 0;
#X connect 19 0 25 0;
#X connect 19 0 26 0;
#X connect 20 0 25 0;
#X connect 20 0 27 0;
#X connect 21 0 22 0;
#X connect 22 0 20 1;
#X connect 22 0 19 1;
#X connect 23 0 21 0;
#X connect 24 0 23 0;
#X connect 24 1 23 1;
#X coords 0 -1 1 1 610 210 1 100 100;
