#N canvas 155 22 752 456 10;
#X obj -39 404 outlet;
#X obj -128 18 receiver /\$1/src/freq;
#X obj -128 40 receiver /\$1/src/rnd/freq;
#X obj -128 62 receiver /\$1/src/rnd/curve;
#X obj -128 84 receiver /\$1/src/rnd/depth;
#X obj -128 106 receiver /\$1/src/mod/freq;
#X obj -128 128 receiver /\$1/src/mod/depth;
#X obj -128 172 receiver /\$1/src/dist/rnd/freq;
#X obj -128 194 receiver /\$1/src/dist/rnd/curve;
#X obj -128 216 receiver /\$1/src/dist/rnd/depth;
#X obj 265 31 receiver /\$1/rnd/freq;
#X obj 265 55 receiver /\$1/rnd/curve;
#X obj 265 79 receiver /\$1/rnd/depth;
#X obj 265 103 receiver /\$1/logi/freq;
#X obj 265 127 receiver /\$1/logi/coef;
#X obj 265 151 receiver /\$1/logi/curve;
#X obj 265 175 receiver /\$1/logi/depth;
#X obj 265 199 receiver /\$1/mod1/freq;
#X obj 265 223 receiver /\$1/mod1/dist;
#X obj 265 247 receiver /\$1/mod1/depth;
#X obj 265 271 receiver /\$1/mod2/freq;
#X obj 260 297 receiver /\$1/mod2/dist;
#X obj 260 321 receiver /\$1/mod2/depth;
#X obj -128 238 receiver /\$1/src/dust/freq;
#X obj -128 260 receiver /\$1/src/dust/depth;
#X obj -128 282 receiver /\$1/src/dust/decay;
#X obj -128 304 receiver /\$1/src/knee/thresh;
#X obj -128 326 receiver /\$1/src/knee/bend;
#X obj 260 345 receiver /\$1/mod3/freq;
#X obj 260 369 receiver /\$1/mod3/dist;
#X obj 260 393 receiver /\$1/mod3/depth;
#X obj 418 32 receiver /\$1/chorus/amp;
#X obj 418 55 receiver /\$1/flanger/rnd/freq;
#X obj 418 78 receiver /\$1/flanger/rnd/depth;
#X obj 418 101 receiver /\$1/flanger/amp;
#X obj 418 124 receiver /\$1/pepe/rnd/freq;
#X obj 418 147 receiver /\$1/pepe/rnd/depth;
#X obj 418 170 receiver /\$1/pepe/amp;
#X obj 418 193 receiver /\$1/pshift/rnd/freq;
#X obj 418 216 receiver /\$1/pshift/rnd/depth;
#X obj 418 239 receiver /\$1/pshift/amp;
#X obj 419 263 receiver /\$1/pan/pan;
#X obj 419 286 receiver /\$1/pan/rnd/freq;
#X obj 419 309 receiver /\$1/pan/rnd/depth;
#X obj 419 332 receiver /\$1/amp;
#X obj 419 355 receiver /\$1/revSend;
#X obj 419 377 receiver /\$1/sChain;
#X obj -128 150 receiver /\$1/src/dist/dist;
#X connect 1 0 0 0;
#X connect 2 0 0 0;
#X connect 3 0 0 0;
#X connect 4 0 0 0;
#X connect 5 0 0 0;
#X connect 6 0 0 0;
#X connect 7 0 0 0;
#X connect 8 0 0 0;
#X connect 9 0 0 0;
#X connect 10 0 0 0;
#X connect 11 0 0 0;
#X connect 12 0 0 0;
#X connect 13 0 0 0;
#X connect 14 0 0 0;
#X connect 15 0 0 0;
#X connect 16 0 0 0;
#X connect 17 0 0 0;
#X connect 18 0 0 0;
#X connect 19 0 0 0;
#X connect 20 0 0 0;
#X connect 21 0 0 0;
#X connect 22 0 0 0;
#X connect 23 0 0 0;
#X connect 24 0 0 0;
#X connect 25 0 0 0;
#X connect 26 0 0 0;
#X connect 27 0 0 0;
#X connect 28 0 0 0;
#X connect 29 0 0 0;
#X connect 30 0 0 0;
#X connect 31 0 0 0;
#X connect 32 0 0 0;
#X connect 33 0 0 0;
#X connect 34 0 0 0;
#X connect 35 0 0 0;
#X connect 36 0 0 0;
#X connect 37 0 0 0;
#X connect 38 0 0 0;
#X connect 39 0 0 0;
#X connect 40 0 0 0;
#X connect 41 0 0 0;
#X connect 42 0 0 0;
#X connect 43 0 0 0;
#X connect 44 0 0 0;
#X connect 45 0 0 0;
#X connect 46 0 0 0;
#X connect 47 0 0 0;
