#N canvas 53 22 450 300 10;
#X obj 33 180 inlet~;
#X obj 75 245 *~;
#X obj 83 275 outlet~;
#X obj 163 240 *~;
#X obj 176 267 outlet~;
#X obj 93 14 inlet~;
#X obj 173 31 sig~ 1;
#X obj 173 65 -~;
#X obj 180 148 cos~;
#X obj 95 141 cos~;
#X obj 160 117 *~ 0.25;
#X obj 92 110 *~ 0.25;
#X obj 94 41 +~ 1;
#X obj 94 63 *~ 0.5;
#X connect 0 0 1 0;
#X connect 0 0 3 0;
#X connect 1 0 2 0;
#X connect 3 0 4 0;
#X connect 5 0 12 0;
#X connect 6 0 7 0;
#X connect 7 0 10 0;
#X connect 8 0 3 1;
#X connect 9 0 1 1;
#X connect 10 0 8 0;
#X connect 11 0 9 0;
#X connect 12 0 13 0;
#X connect 13 0 11 0;
#X connect 13 0 7 1;
