#N canvas 376 153 450 300 10;
#X obj 162 206 cos;
#X obj 159 61 until;
#X obj 159 88 count;
#X obj 162 155 / 1024;
#X obj 162 183 * 0.0174533;
#X obj 159 8 inlet;
#X obj 159 35 t f f;
#X obj 161 236 tabwrite \$1;
#X obj 159 120 t f f;
#X connect 0 0 7 0;
#X connect 1 0 2 0;
#X connect 2 0 8 0;
#X connect 3 0 4 0;
#X connect 4 0 0 0;
#X connect 5 0 6 0;
#X connect 6 0 1 0;
#X connect 6 1 3 1;
#X connect 8 0 3 0;
#X connect 8 1 7 1;
