#N canvas 418 311 330 277 10;
#X obj 124 55 r intp_min_audio;
#X obj 183 81 r intp_max_audio;
#X obj 101 120 rrandom;
#X obj 54 49 inlet;
#X obj 62 241 outlet;
#X obj 60 89 t a b;
#X floatatom 128 90 5 0 0 0 - - -;
#X floatatom 182 108 5 0 0 0 - - -;
#X obj 65 158 list append;
#X obj 63 183 list trim;
#X obj 66 212 line 0 15;
#X connect 0 0 6 0;
#X connect 1 0 7 0;
#X connect 2 0 8 1;
#X connect 3 0 5 0;
#X connect 5 0 8 0;
#X connect 5 1 2 0;
#X connect 6 0 2 1;
#X connect 7 0 2 2;
#X connect 8 0 9 0;
#X connect 9 0 10 0;
#X connect 10 0 4 0;
