#N canvas 0 22 450 300 10;
#X obj 172 103 f;
#X obj 128 157 moses 0;
#X floatatom 123 44 5 0 0 0 - - -;
#X floatatom 151 271 5 0 0 0 - - -;
#X obj 121 127 -;
#X obj 126 234 +;
#X obj 170 233 +;
#X obj 122 72 t f b;
#X obj 125 21 inlet;
#X obj 157 294 outlet;
#X obj 128 203 * \$1;
#X connect 0 0 4 1;
#X connect 0 0 5 1;
#X connect 0 0 6 1;
#X connect 1 0 10 0;
#X connect 1 1 6 0;
#X connect 2 0 7 0;
#X connect 3 0 0 1;
#X connect 3 0 9 0;
#X connect 4 0 1 0;
#X connect 5 0 3 0;
#X connect 6 0 3 0;
#X connect 7 0 4 0;
#X connect 7 1 0 0;
#X connect 8 0 2 0;
#X connect 10 0 5 0;
