#N canvas 572 466 490 383 10;
#X obj 131 21 inlet;
#X obj 122 299 outlet;
#X obj 145 128 -;
#X floatatom 150 157 5 0 0 0 - - -;
#X obj 214 214 f;
#X obj 150 224 +;
#X floatatom 176 42 5 0 0 0 - - -;
#X obj 125 69 t f b;
#X floatatom 141 249 5 0 0 0 - - -;
#X obj 148 187 * \$1;
#X connect 0 0 7 0;
#X connect 2 0 3 0;
#X connect 3 0 9 0;
#X connect 4 0 5 1;
#X connect 4 0 2 1;
#X connect 5 0 4 1;
#X connect 5 0 8 0;
#X connect 6 0 7 0;
#X connect 7 0 2 0;
#X connect 7 1 4 0;
#X connect 8 0 1 0;
#X connect 9 0 5 0;
