#N canvas 771 566 856 342 10;
#X obj 47 200 dac~ 1 2 3 4 5 6 7 8 9 10 11 12 13 14 15 16 17 18 19
20 21 22 23;
#N canvas 510 92 969 767 speaker_config 0;
#X obj 355 149 until;
#X msg 355 131 10;
#X obj 249 149 until;
#X msg 249 131 8;
#X obj 169 145 until;
#X msg 169 130 4;
#X obj 355 169 f;
#X obj 257 179 + 1;
#X obj 249 167 f;
#X obj 179 178 + 1;
#X obj 169 165 f;
#X obj 362 183 + 1;
#X obj 355 199 * 36;
#X obj 249 198 * 45;
#X obj 169 197 * 90;
#X obj 355 260 pack 0 0;
#X obj 250 264 pack 0 35;
#X obj 172 264 pack 0 70;
#X msg 105 138 0 90;
#X obj 355 212 + 180;
#X obj 380 243 - 360;
#X msg 387 101 0;
#X obj 355 225 moses 181;
#X obj 249 214 + 180;
#X obj 274 245 - 360;
#X obj 250 227 moses 181;
#X obj 170 214 + 180;
#X obj 195 246 - 360;
#X obj 170 227 moses 181;
#X obj 155 344 list prepend define_loudspeakers 3;
#X obj 91 411 list trim;
#X obj 79 66 bng 15 250 50 0 empty empty empty 17 7 0 10 -262144 -1
-1;
#X obj 93 379 list append;
#X obj 89 87 t b b b b b b;
#X obj 156 316 list prepend;
#X obj 247 315 t l;
#X obj 89 443 s speaker_setup;
#X obj 111 43 loadbang;
#X obj 64 14 inlet;
#X connect 0 0 6 0;
#X connect 1 0 0 0;
#X connect 2 0 8 0;
#X connect 3 0 2 0;
#X connect 4 0 10 0;
#X connect 5 0 4 0;
#X connect 6 0 11 0;
#X connect 6 0 12 0;
#X connect 7 0 8 1;
#X connect 8 0 7 0;
#X connect 8 0 13 0;
#X connect 9 0 10 1;
#X connect 10 0 9 0;
#X connect 10 0 14 0;
#X connect 11 0 6 1;
#X connect 12 0 19 0;
#X connect 13 0 23 0;
#X connect 14 0 26 0;
#X connect 15 0 34 0;
#X connect 16 0 34 0;
#X connect 17 0 34 0;
#X connect 18 0 34 0;
#X connect 19 0 22 0;
#X connect 20 0 15 0;
#X connect 21 0 6 1;
#X connect 21 0 8 1;
#X connect 21 0 10 1;
#X connect 22 0 15 0;
#X connect 22 1 20 0;
#X connect 23 0 25 0;
#X connect 24 0 16 0;
#X connect 25 0 16 0;
#X connect 25 1 24 0;
#X connect 26 0 28 0;
#X connect 27 0 17 0;
#X connect 28 0 17 0;
#X connect 28 1 27 0;
#X connect 29 0 32 1;
#X connect 30 0 36 0;
#X connect 31 0 33 0;
#X connect 32 0 30 0;
#X connect 33 0 32 0;
#X connect 33 1 18 0;
#X connect 33 2 5 0;
#X connect 33 3 3 0;
#X connect 33 4 1 0;
#X connect 33 5 21 0;
#X connect 33 5 34 1;
#X connect 34 0 35 0;
#X connect 34 0 29 0;
#X connect 35 0 34 1;
#X connect 38 0 31 0;
#X restore 608 221 pd speaker_config;
#N canvas 0 50 1037 450 speakers_____________________________________________
0;
#X obj 66 31 catch~ spk1;
#X obj 87 53 catch~ spk2;
#X obj 105 77 catch~ spk3;
#X obj 126 98 catch~ spk4;
#X obj 143 119 catch~ spk5;
#X obj 163 140 catch~ spk6;
#X obj 179 161 catch~ spk7;
#X obj 195 185 catch~ spk8;
#X obj 218 209 catch~ spk9;
#X obj 233 232 catch~ spk10;
#X obj 290 26 catch~ spk11;
#X obj 317 46 catch~ spk12;
#X obj 339 67 catch~ spk13;
#X obj 358 86 catch~ spk14;
#X obj 385 102 catch~ spk15;
#X obj 413 122 catch~ spk16;
#X obj 432 142 catch~ spk17;
#X obj 453 163 catch~ spk18;
#X obj 532 17 catch~ spk19;
#X obj 560 37 catch~ spk20;
#X obj 581 62 catch~ spk21;
#X obj 603 83 catch~ spk22;
#X obj 705 18 catch~ spk23;
#X obj 66 139 outlet~;
#X obj 86 160 outlet~;
#X obj 104 181 outlet~;
#X obj 125 199 outlet~;
#X obj 142 221 outlet~;
#X obj 164 245 outlet~;
#X obj 179 266 outlet~;
#X obj 195 282 outlet~;
#X obj 219 301 outlet~;
#X obj 235 321 outlet~;
#X obj 289 132 outlet~;
#X obj 318 156 outlet~;
#X obj 338 178 outlet~;
#X obj 359 203 outlet~;
#X obj 384 231 outlet~;
#X obj 413 255 outlet~;
#X obj 433 277 outlet~;
#X obj 454 302 outlet~;
#X obj 532 101 outlet~;
#X obj 561 125 outlet~;
#X obj 581 147 outlet~;
#X obj 602 172 outlet~;
#X obj 705 51 outlet~;
#X connect 0 0 23 0;
#X connect 1 0 24 0;
#X connect 2 0 25 0;
#X connect 3 0 26 0;
#X connect 4 0 27 0;
#X connect 5 0 28 0;
#X connect 6 0 29 0;
#X connect 7 0 30 0;
#X connect 8 0 31 0;
#X connect 9 0 32 0;
#X connect 10 0 33 0;
#X connect 11 0 34 0;
#X connect 12 0 35 0;
#X connect 13 0 36 0;
#X connect 14 0 37 0;
#X connect 15 0 38 0;
#X connect 16 0 39 0;
#X connect 17 0 40 0;
#X connect 18 0 41 0;
#X connect 19 0 42 0;
#X connect 20 0 43 0;
#X connect 21 0 44 0;
#X connect 22 0 45 0;
#X restore 48 155 pd speakers_____________________________________________
;
#X obj 52 113 s tick;
#X obj 58 60 tgl 15 0 empty empty empty 17 7 0 10 -262144 -1 -1 1 1
;
#X obj 53 86 metro 50;
#X obj 65 32 inlet;
#X obj 611 192 bng 15 250 50 0 empty empty empty 17 7 0 10 -262144
-1 -1;
#X obj 294 111 3dpan fix2;
#X obj 397 111 3dpan map1;
#X obj 491 111 3dpan map2;
#X obj 596 111 3dpan cmd1;
#X obj 688 111 3dpan cmd2;
#X floatatom 294 34 5 0 0 0 - - -;
#X floatatom 322 53 5 0 0 0 - - -;
#X floatatom 351 71 5 0 0 0 - - -;
#X floatatom 397 34 5 0 0 0 - - -;
#X floatatom 425 53 5 0 0 0 - - -;
#X floatatom 454 71 5 0 0 0 - - -;
#X floatatom 491 34 5 0 0 0 - - -;
#X floatatom 519 53 5 0 0 0 - - -;
#X floatatom 548 71 5 0 0 0 - - -;
#X floatatom 596 44 5 0 0 0 - - -;
#X floatatom 624 63 5 0 0 0 - - -;
#X floatatom 653 81 5 0 0 0 - - -;
#X floatatom 688 40 5 0 0 0 - - -;
#X floatatom 716 59 5 0 0 0 - - -;
#X floatatom 745 77 5 0 0 0 - - -;
#X obj 189 111 3dpan fix1;
#X floatatom 189 38 5 0 0 0 - - -;
#X floatatom 217 55 5 0 0 0 - - -;
#X floatatom 246 72 5 0 0 0 - - -;
#X obj 189 -34 pan_r fix1;
#X obj 601 160 inlet;
#X obj 294 -34 pan_r fix2;
#X obj 397 -34 pan_r map1;
#X obj 491 -34 pan_r map2;
#X obj 596 -34 pan_r cmd1;
#X obj 688 -34 pan_r cmd2;
#X connect 2 0 0 0;
#X connect 2 1 0 1;
#X connect 2 2 0 2;
#X connect 2 3 0 3;
#X connect 2 4 0 4;
#X connect 2 5 0 5;
#X connect 2 6 0 6;
#X connect 2 7 0 7;
#X connect 2 8 0 8;
#X connect 2 9 0 9;
#X connect 2 10 0 10;
#X connect 2 11 0 11;
#X connect 2 12 0 12;
#X connect 2 13 0 13;
#X connect 2 14 0 14;
#X connect 2 15 0 15;
#X connect 2 16 0 16;
#X connect 2 17 0 17;
#X connect 2 18 0 18;
#X connect 2 19 0 19;
#X connect 2 20 0 20;
#X connect 2 21 0 21;
#X connect 2 22 0 22;
#X connect 4 0 5 0;
#X connect 5 0 3 0;
#X connect 6 0 4 0;
#X connect 7 0 1 0;
#X connect 13 0 8 0;
#X connect 14 0 8 1;
#X connect 15 0 8 2;
#X connect 16 0 9 0;
#X connect 17 0 9 1;
#X connect 18 0 9 2;
#X connect 19 0 10 0;
#X connect 20 0 10 1;
#X connect 21 0 10 2;
#X connect 22 0 11 0;
#X connect 23 0 11 1;
#X connect 24 0 11 2;
#X connect 25 0 12 0;
#X connect 26 0 12 1;
#X connect 27 0 12 2;
#X connect 29 0 28 0;
#X connect 30 0 28 1;
#X connect 31 0 28 2;
#X connect 32 0 29 0;
#X connect 32 1 30 0;
#X connect 32 2 31 0;
#X connect 33 0 7 0;
#X connect 34 0 13 0;
#X connect 34 1 14 0;
#X connect 34 2 15 0;
#X connect 35 0 16 0;
#X connect 35 1 17 0;
#X connect 35 2 18 0;
#X connect 36 0 19 0;
#X connect 36 1 20 0;
#X connect 36 2 21 0;
#X connect 37 0 22 0;
#X connect 37 1 23 0;
#X connect 37 2 24 0;
#X connect 38 0 25 0;
#X connect 38 1 26 0;
#X connect 38 2 27 0;
