#N canvas 253 249 450 300 10;
#X obj 97 229 *~;
#X obj 182 228 *~;
#X obj 27 186 inlet~;
#X obj 97 260 outlet~;
#X obj 180 260 outlet~;
#X obj 125 184 cos~;
#X obj 205 185 cos~;
#X obj 149 57 inlet~;
#X obj 148 94 *~ 0.125;
#X obj 204 156 -~ 0.25;
#X obj 127 133 +~ 0.125;
#X connect 0 0 3 0;
#X connect 1 0 4 0;
#X connect 2 0 0 0;
#X connect 2 0 1 0;
#X connect 5 0 0 1;
#X connect 6 0 1 1;
#X connect 7 0 8 0;
#X connect 8 0 10 0;
#X connect 9 0 6 0;
#X connect 10 0 5 0;
#X connect 10 0 9 0;
