#N canvas 666 385 1057 601 10;
#X floatatom 126 435 5 0 0 0 - - -;
#X obj 129 300 random 360;
#X obj 129 330 - 180;
#X floatatom 289 262 5 0 0 0 - - -;
#X obj 129 390 line 0 50;
#X obj 129 360 pack 0 1000;
#X obj 105 168 bng 15 250 50 0 empty empty empty 17 7 0 10 -262144
-1 -1;
#X obj 104 207 random 1000;
#X obj 66 271 del;
#X obj 289 234 line 0 50;
#X floatatom 342 189 5 0 0 0 - - -;
#X obj 342 162 line 0 50;
#X obj 65 143 spigot;
#X obj 236 126 tgl 15 0 empty empty empty 17 7 0 10 -262144 -1 -1 0
1;
#X obj 135 165 sel 1 0;
#X msg 230 187 stop;
#X msg 228 353 0;
#X obj 229 214 t b b;
#X obj 289 298 / 2;
#X obj 104 230 + 100;
#X obj 376 6 route \$1;
#X obj 236 96 route switch range interval;
#X floatatom 508 438 5 0 0 0 - - -;
#X obj 508 318 random 360;
#X floatatom 668 280 5 0 0 0 - - -;
#X obj 508 408 line 0 50;
#X obj 508 378 pack 0 1000;
#X obj 484 186 bng 15 250 50 0 empty empty empty 17 7 0 10 -262144
-1 -1;
#X obj 483 225 random 1000;
#X obj 445 289 del;
#X obj 668 252 line 0 50;
#X floatatom 721 207 5 0 0 0 - - -;
#X obj 721 180 line 0 50;
#X obj 444 161 spigot;
#X obj 615 144 tgl 15 0 empty empty empty 17 7 0 10 -262144 -1 -1 0
1;
#X obj 514 183 sel 1 0;
#X msg 609 205 stop;
#X msg 607 371 0;
#X obj 608 232 t b b;
#X obj 483 248 + 100;
#X obj 615 114 route switch range interval;
#X obj 782 345 line 0 50;
#X obj 862 350 line 0 50;
#X obj 928 351 line 0 50;
#X obj 833 106 route az el sp;
#X floatatom 785 449 5 0 0 0 - - -;
#X floatatom 862 455 5 0 0 0 - - -;
#X floatatom 928 455 5 0 0 0 - - -;
#X obj 784 420 +;
#X obj 783 385 t b f;
#X obj 864 430 +;
#X obj 863 395 t b f;
#X obj 374 60 route az el;
#X obj 782 482 outlet;
#X obj 855 486 outlet;
#X obj 922 489 outlet;
#X obj 376 -24 r panner;
#X obj 371 32 route auto;
#X floatatom 875 371 5 0 0 0 - - -;
#X floatatom 792 367 5 0 0 0 - - -;
#X obj 484 37 print panner_param_error;
#X obj 859 59 print panner_param_error;
#X obj 389 120 print panner_auto_param_error;
#X connect 0 0 48 0;
#X connect 1 0 2 0;
#X connect 2 0 5 0;
#X connect 3 0 1 1;
#X connect 3 0 18 0;
#X connect 4 0 0 0;
#X connect 5 0 4 0;
#X connect 6 0 7 0;
#X connect 6 0 1 0;
#X connect 7 0 19 0;
#X connect 8 0 12 0;
#X connect 9 0 3 0;
#X connect 10 0 7 1;
#X connect 11 0 10 0;
#X connect 12 0 6 0;
#X connect 13 0 12 1;
#X connect 13 0 14 0;
#X connect 14 0 6 0;
#X connect 14 1 15 0;
#X connect 15 0 17 0;
#X connect 16 0 4 0;
#X connect 17 0 16 0;
#X connect 17 1 8 0;
#X connect 18 0 2 1;
#X connect 19 0 8 0;
#X connect 19 0 5 1;
#X connect 20 0 57 0;
#X connect 21 0 13 0;
#X connect 21 1 9 0;
#X connect 21 2 11 0;
#X connect 21 3 62 0;
#X connect 22 0 50 0;
#X connect 23 0 26 0;
#X connect 24 0 23 1;
#X connect 25 0 22 0;
#X connect 26 0 25 0;
#X connect 27 0 28 0;
#X connect 27 0 23 0;
#X connect 28 0 39 0;
#X connect 29 0 33 0;
#X connect 30 0 24 0;
#X connect 31 0 28 1;
#X connect 32 0 31 0;
#X connect 33 0 27 0;
#X connect 34 0 33 1;
#X connect 34 0 35 0;
#X connect 35 0 27 0;
#X connect 35 1 36 0;
#X connect 36 0 38 0;
#X connect 37 0 25 0;
#X connect 38 0 37 0;
#X connect 38 1 29 0;
#X connect 39 0 29 0;
#X connect 39 0 26 1;
#X connect 40 0 34 0;
#X connect 40 1 30 0;
#X connect 40 2 32 0;
#X connect 41 0 49 0;
#X connect 41 0 59 0;
#X connect 42 0 51 0;
#X connect 42 0 58 0;
#X connect 43 0 47 0;
#X connect 44 0 41 0;
#X connect 44 1 42 0;
#X connect 44 2 43 0;
#X connect 44 3 61 0;
#X connect 45 0 53 0;
#X connect 46 0 54 0;
#X connect 47 0 55 0;
#X connect 48 0 45 0;
#X connect 49 0 48 0;
#X connect 49 1 48 1;
#X connect 50 0 46 0;
#X connect 51 0 50 0;
#X connect 51 1 50 1;
#X connect 52 0 21 0;
#X connect 52 1 40 0;
#X connect 52 2 60 0;
#X connect 56 0 20 0;
#X connect 57 0 52 0;
#X connect 57 1 44 0;
