#N canvas 425 560 410 261 10;
#X obj 119 45 route float bang;
#X obj 165 83 bng 15 250 50 0 empty empty empty 17 7 0 10 -262144 -1
-1;
#X obj 118 13 inlet;
#X obj 87 194 outlet;
#X obj 226 45 inlet;
#X obj 85 75 sel 0;
#X obj 270 83 == 0;
#X obj 188 125 spigot;
#X obj 136 126 spigot;
#X obj 230 85 != 0;
#X obj 149 169 delay \$1;
#X obj 302 28 f \$1;
#X obj 305 -3 loadbang;
#X connect 0 0 5 0;
#X connect 0 1 1 0;
#X connect 1 0 7 0;
#X connect 1 0 8 0;
#X connect 2 0 0 0;
#X connect 4 0 6 0;
#X connect 4 0 9 0;
#X connect 4 0 10 1;
#X connect 5 0 3 0;
#X connect 5 1 10 0;
#X connect 6 0 7 1;
#X connect 7 0 3 0;
#X connect 8 0 10 0;
#X connect 9 0 8 1;
#X connect 10 0 3 0;
#X connect 11 0 6 0;
#X connect 11 0 9 0;
#X connect 12 0 11 0;
