#N canvas 651 85 720 582 10;
#X obj 122 115 spigot;
#X obj 244 69 == \$1;
#X obj 244 98 t f f;
#X obj 271 134 sel 1;
#X msg 271 170 set;
#X text 301 170 clear;
#X obj 123 275 list trim;
#X obj 11 309 sel \$1;
#X obj 125 413 textfile;
#X obj 11 370 until;
#X obj 123 249 list prepend add;
#X msg 56 353 rewind;
#X floatatom 466 328 5 0 0 0 - - -;
#X floatatom 281 329 5 0 0 0 - - -;
#X obj 11 336 t b b;
#X obj 466 268 sel \$1;
#X obj 466 301 f \$1;
#X obj 279 265 sel \$1;
#X obj 279 298 f \$1;
#X msg 466 358 write preset_audio/\$1.txt;
#X obj 11 282 r load_audio;
#X obj 243 40 r target_audio;
#X obj 123 37 r presetdata_audio;
#X obj 280 232 r restore;
#X obj 466 236 r store;
#X obj 195 559 s loader_audio;
#X msg 42 443 print;
#X obj 124 78 routeOSC /1;
#X obj 194 501 f;
#X obj 198 473 t b a;
#X obj 247 497 unpack s f;
#X obj 195 525 sprintf /%d%s %f;
#X msg 281 355 read preset_audio/\$1.txt;
#X obj 127 444 routeOSC /name;
#X obj 70 495 list prepend /name;
#X obj 70 524 list trim;
#X obj 273 446 r load_target;
#X connect 0 0 10 0;
#X connect 1 0 2 0;
#X connect 2 0 0 1;
#X connect 2 1 3 0;
#X connect 3 0 4 0;
#X connect 4 0 8 0;
#X connect 6 0 8 0;
#X connect 7 0 14 0;
#X connect 8 0 33 0;
#X connect 8 1 9 1;
#X connect 9 0 8 0;
#X connect 10 0 6 0;
#X connect 11 0 8 0;
#X connect 12 0 19 0;
#X connect 13 0 32 0;
#X connect 14 0 9 0;
#X connect 14 1 11 0;
#X connect 15 0 16 0;
#X connect 16 0 12 0;
#X connect 17 0 18 0;
#X connect 18 0 13 0;
#X connect 19 0 8 0;
#X connect 20 0 7 0;
#X connect 21 0 1 0;
#X connect 22 0 27 0;
#X connect 23 0 17 0;
#X connect 24 0 15 0;
#X connect 26 0 8 0;
#X connect 27 0 0 0;
#X connect 28 0 31 0;
#X connect 29 0 28 0;
#X connect 29 1 30 0;
#X connect 30 0 31 1;
#X connect 30 1 31 2;
#X connect 31 0 25 0;
#X connect 32 0 8 0;
#X connect 33 0 34 0;
#X connect 33 1 29 0;
#X connect 34 0 35 0;
#X connect 35 0 25 0;
#X connect 36 0 28 1;
