#N canvas 524 145 577 544 10;
#X obj 112 105 spigot;
#X obj 234 59 == \$1;
#X obj 234 88 t f f;
#X obj 261 124 sel 1;
#X msg 261 160 set;
#X text 291 160 clear;
#X obj 113 265 list trim;
#X obj 1 299 sel \$1;
#X obj 113 215 list append;
#X obj 171 156 list split 2;
#X obj 113 185 list split 1;
#X obj 116 433 list append 5000;
#X obj 116 459 list trim;
#X obj 115 403 textfile;
#X obj 1 360 until;
#X obj 113 239 list prepend add;
#X msg 46 343 rewind;
#X floatatom 413 314 5 0 0 0 - - -;
#X obj 112 135 t a a;
#X floatatom 242 317 5 0 0 0 - - -;
#X obj 1 326 t b b;
#X obj 413 222 r store;
#X obj 241 220 r restore;
#X obj 413 254 sel \$1;
#X obj 413 287 f \$1;
#X obj 240 253 sel \$1;
#X obj 240 286 f \$1;
#X obj 1 272 r load_visual;
#X obj 116 487 s loader_visual;
#X obj 234 30 r target_visual;
#X obj 112 73 r presetdata_visual;
#X msg 243 343 read presets_visual/\$1.txt;
#X msg 413 344 write presets_visual/\$1.txt;
#X msg 43 438 print;
#X obj 258 413 r intp_visual;
#X connect 0 0 18 0;
#X connect 1 0 2 0;
#X connect 2 0 0 1;
#X connect 2 1 3 0;
#X connect 3 0 4 0;
#X connect 4 0 13 0;
#X connect 6 0 13 0;
#X connect 7 0 20 0;
#X connect 8 0 15 0;
#X connect 9 1 8 1;
#X connect 10 0 8 0;
#X connect 11 0 12 0;
#X connect 12 0 28 0;
#X connect 13 0 11 0;
#X connect 13 1 14 1;
#X connect 14 0 13 0;
#X connect 15 0 6 0;
#X connect 16 0 13 0;
#X connect 17 0 32 0;
#X connect 18 0 10 0;
#X connect 18 1 9 0;
#X connect 19 0 31 0;
#X connect 20 0 14 0;
#X connect 20 1 16 0;
#X connect 21 0 23 0;
#X connect 22 0 25 0;
#X connect 23 0 24 0;
#X connect 24 0 17 0;
#X connect 25 0 26 0;
#X connect 26 0 19 0;
#X connect 27 0 7 0;
#X connect 29 0 1 0;
#X connect 30 0 0 0;
#X connect 31 0 13 0;
#X connect 32 0 13 0;
#X connect 33 0 13 0;
#X connect 34 0 11 1;
