#N canvas 125 132 267 280 10;
#X obj 96 189 outlet~;
#X obj 101 120 delta~;
#X obj 96 89 phasor~ \$1;
#X obj 91 66 inlet~;
#X obj 103 145 <~ 0;
#X connect 1 0 4 0;
#X connect 2 0 1 0;
#X connect 3 0 2 0;
#X connect 4 0 0 0;
