#N canvas 599 154 384 449 10;
#X obj 114 70 unpack 0 0;
#X obj 261 -25 inlet;
#X obj 230 61 sel 0;
#X obj 212 148 -;
#X obj 54 363 del;
#X msg 56 144 stop;
#X obj 116 336 moses 1;
#X msg 117 373 0;
#X obj 104 305 t b f b;
#X msg 192 332 next;
#X msg 294 117 0;
#X obj 134 272 moses 10000;
#X obj 136 247 moses 0;
#X msg 252 184 rewind \, next;
#X obj 230 91 t b b b;
#X floatatom 211 174 5 0 0 0 - - -;
#X obj 251 382 outlet;
#X obj 114 43 inlet;
#X obj 195 -44 inlet;
#X obj 196 -8 count;
#X floatatom 196 20 5 0 0 0 - - -;
#X obj 259 9 t f b;
#X msg 286 34 0;
#X obj 314 64 outlet;
#X connect 0 0 4 1;
#X connect 0 1 3 1;
#X connect 1 0 21 0;
#X connect 2 0 14 0;
#X connect 2 1 3 0;
#X connect 3 0 15 0;
#X connect 4 0 3 0;
#X connect 5 0 4 0;
#X connect 6 1 7 0;
#X connect 7 0 4 1;
#X connect 8 0 4 0;
#X connect 8 1 6 0;
#X connect 8 2 9 0;
#X connect 9 0 16 0;
#X connect 10 0 3 1;
#X connect 11 0 8 0;
#X connect 12 1 11 0;
#X connect 13 0 16 0;
#X connect 14 0 5 0;
#X connect 14 1 13 0;
#X connect 14 2 10 0;
#X connect 15 0 12 0;
#X connect 17 0 0 0;
#X connect 18 0 19 0;
#X connect 19 0 20 0;
#X connect 20 0 2 0;
#X connect 20 0 23 0;
#X connect 21 0 19 1;
#X connect 21 1 22 0;
#X connect 22 0 2 0;
