#N canvas 308 157 450 300 10;
#X obj 316 76 f \$2;
#X obj 181 164 - \$1;
#X obj 152 206 random;
#X obj 156 237 + \$1;
#X obj 70 124 inlet;
#X obj 243 92 inlet;
#X obj 153 268 outlet;
#X obj 317 46 inlet;
#X obj 153 31 loadbang;
#X obj 177 123 t b f;
#X connect 0 0 1 0;
#X connect 1 0 2 1;
#X connect 2 0 3 0;
#X connect 3 0 6 0;
#X connect 4 0 2 0;
#X connect 5 0 1 1;
#X connect 5 0 3 1;
#X connect 5 0 9 0;
#X connect 7 0 0 0;
#X connect 8 0 0 0;
#X connect 9 0 1 0;
#X connect 9 1 1 1;
