#N canvas 254 290 436 424 10;
#X obj 97 81 wrap;
#X floatatom 69 30 5 0 0 0 - - -;
#X floatatom 97 101 5 0 0 0 - - -;
#X obj 69 137 -;
#X obj 69 57 t f f;
#X floatatom 69 163 5 0 0 0 - - -;
#X obj 40 247 tabread \$1;
#X obj 113 248 tabread \$1;
#X obj 53 285 -;
#X obj 69 189 t f f;
#X obj 70 218 + 1;
#X text 179 250 V[n+1] - V[n];
#X obj 99 357 +;
#X text 139 355 V[n] + a(V[n+1] - V[n]);
#X obj 71 324 *;
#X obj 107 136 t f f;
#X floatatom 101 385 5 0 0 0 - - -;
#X obj 108 408 outlet;
#X obj 71 5 inlet;
#X text 168 60 linear interpolated tabread;
#X connect 0 0 2 0;
#X connect 1 0 4 0;
#X connect 2 0 15 0;
#X connect 3 0 5 0;
#X connect 4 0 3 0;
#X connect 4 1 0 0;
#X connect 5 0 9 0;
#X connect 6 0 8 0;
#X connect 7 0 8 1;
#X connect 7 0 12 1;
#X connect 8 0 14 0;
#X connect 9 0 10 0;
#X connect 9 1 7 0;
#X connect 10 0 6 0;
#X connect 12 0 16 0;
#X connect 14 0 12 0;
#X connect 15 0 3 1;
#X connect 15 1 14 1;
#X connect 16 0 17 0;
#X connect 18 0 1 0;
