#N canvas 750 169 326 416 10;
#X obj 111 120 vsl 17 100 0 1 0 0 empty empty x 5 -10 0 10 -204786
-1 -1 0 1;
#X obj 132 120 vsl 17 100 0 1 0 0 empty empty y 5 -10 0 10 -261234
-1 -1 0 1;
#X obj 153 120 vsl 17 100 0 1 0 0 empty empty z 5 -10 0 10 -203904
-1 -1 0 1;
#X obj 111 307 pack 0 0 0;
#X obj 111 334 outlet;
#X obj 175 120 vsl 17 100 0 1 0 0 empty empty a 5 -10 0 10 -228856
-1 -1 0 1;
#X obj 61 51 line 0 15;
#X obj 123 51 line 0 15;
#X obj 185 50 line 0 15;
#X obj 102 21 route x y z;
#X obj 111 251 * \$2;
#X obj 145 251 * \$2;
#X obj 179 251 * \$2;
#X obj 103 0 route \$1;
#X obj 111 278 + \$3;
#X obj 145 278 + \$3;
#X obj 179 279 + \$3;
#X obj 103 -23 inlet;
#X connect 0 0 10 0;
#X connect 1 0 11 0;
#X connect 2 0 12 0;
#X connect 3 0 4 0;
#X connect 5 0 2 0;
#X connect 5 0 1 0;
#X connect 5 0 0 0;
#X connect 6 0 0 0;
#X connect 7 0 1 0;
#X connect 8 0 2 0;
#X connect 9 0 6 0;
#X connect 9 1 7 0;
#X connect 9 2 8 0;
#X connect 10 0 14 0;
#X connect 11 0 15 0;
#X connect 12 0 16 0;
#X connect 13 0 9 0;
#X connect 14 0 3 0;
#X connect 15 0 3 1;
#X connect 16 0 3 2;
#X connect 17 0 13 0;
#X coords 0 -1 1 1 100 130 1 100 100;
