#N canvas 20 36 1285 638 10;
#X obj 369 223 route 0 1 2 3 4 5 6 7 8 9 10 11 12 13 14 15 16 17 18
19 20 21 22;
#X floatatom 443 143 5 0 0 2 - - -;
#X floatatom 480 143 5 0 0 2 - - -;
#X floatatom 524 141 5 0 0 2 - - -;
#X obj 365 111 r speaker_setup;
#X obj 197 241 inlet~;
#X obj 302 125 r tick;
#X obj 473 21 r voice;
#X obj 473 48 route \$1;
#X obj 474 74 route azimuth elevation spread;
#X obj 266 300 intp spk1;
#X obj 269 325 intp spk2;
#X obj 270 350 intp spk3;
#X obj 269 375 intp spk4;
#X obj 268 401 intp spk5;
#X obj 267 425 intp spk6;
#X obj 267 449 intp spk7;
#X obj 265 475 intp spk8;
#X obj 436 470 intp spk16;
#X obj 436 443 intp spk15;
#X obj 439 422 intp spk14;
#X obj 439 402 intp spk13;
#X obj 441 378 intp spk12;
#X obj 441 356 intp spk11;
#X obj 438 332 intp spk10;
#X obj 439 302 intp spk9;
#X obj 589 431 intp spk23;
#X obj 586 407 intp spk22;
#X obj 589 385 intp spk21;
#X obj 585 361 intp spk20;
#X obj 586 345 intp spk19;
#X obj 584 327 intp spk18;
#X obj 586 305 intp spk17;
#N canvas 0 22 661 558 visualization 0;
#X obj 136 41 route 0 1 2 3 4 5 6 7 8 9 10 11 12 13 14 15 16 17 18
19 20 21 22;
#X floatatom 291 382 5 0 0 0 - - -;
#X floatatom 183 327 5 0 0 0 - - -;
#X floatatom 119 259 5 0 0 0 - - -;
#X floatatom 125 184 5 0 0 0 - - -;
#X floatatom 183 136 5 0 0 0 - - -;
#X floatatom 278 109 5 0 0 0 - - -;
#X floatatom 359 154 5 0 0 0 - - -;
#X floatatom 407 207 5 0 0 0 - - -;
#X floatatom 421 275 5 0 0 0 - - -;
#X floatatom 385 335 5 0 0 0 - - -;
#X floatatom 254 327 5 0 0 0 - - -;
#X floatatom 201 205 5 0 0 0 - - -;
#X floatatom 208 293 5 0 0 0 - - -;
#X floatatom 245 174 5 0 0 0 - - -;
#X floatatom 305 177 5 0 0 0 - - -;
#X floatatom 344 214 5 0 0 0 - - -;
#X floatatom 355 295 5 0 0 0 - - -;
#X floatatom 321 328 5 0 0 0 - - -;
#X floatatom 284 292 5 0 0 0 - - -;
#X floatatom 238 246 5 0 0 0 - - -;
#X floatatom 277 213 5 0 0 0 - - -;
#X floatatom 326 249 5 0 0 0 - - -;
#X floatatom 286 246 5 0 0 0 - - -;
#X obj 132 -33 inlet;
#X obj 146 6 spigot;
#X obj 175 -28 inlet;
#X connect 0 0 1 0;
#X connect 0 1 2 0;
#X connect 0 2 3 0;
#X connect 0 3 4 0;
#X connect 0 4 5 0;
#X connect 0 5 6 0;
#X connect 0 6 7 0;
#X connect 0 7 8 0;
#X connect 0 8 9 0;
#X connect 0 9 10 0;
#X connect 0 10 11 0;
#X connect 0 11 13 0;
#X connect 0 12 12 0;
#X connect 0 13 14 0;
#X connect 0 14 15 0;
#X connect 0 15 16 0;
#X connect 0 16 17 0;
#X connect 0 17 18 0;
#X connect 0 18 19 0;
#X connect 0 19 20 0;
#X connect 0 20 21 0;
#X connect 0 21 22 0;
#X connect 0 22 23 0;
#X connect 24 0 25 0;
#X connect 25 0 0 0;
#X connect 26 0 25 1;
#X coords 0 -1 1 1 400 300 1 100 100;
#X restore 785 210 pd visualization;
#X obj 1179 180 tgl 15 0 empty empty empty 17 7 0 10 -262144 -1 -1
0 1;
#X obj 369 179 vbap 0 0 0;
#X connect 0 0 10 1;
#X connect 0 1 11 1;
#X connect 0 2 12 1;
#X connect 0 3 13 1;
#X connect 0 4 14 1;
#X connect 0 5 15 1;
#X connect 0 6 16 1;
#X connect 0 7 17 1;
#X connect 0 8 25 1;
#X connect 0 9 24 1;
#X connect 0 10 23 1;
#X connect 0 11 22 1;
#X connect 0 12 21 1;
#X connect 0 13 20 1;
#X connect 0 14 19 1;
#X connect 0 15 18 1;
#X connect 0 16 32 1;
#X connect 0 17 31 1;
#X connect 0 18 30 1;
#X connect 0 19 29 1;
#X connect 0 20 28 1;
#X connect 0 21 27 1;
#X connect 0 22 26 1;
#X connect 1 0 35 1;
#X connect 2 0 35 2;
#X connect 3 0 35 3;
#X connect 4 0 35 0;
#X connect 5 0 10 0;
#X connect 5 0 11 0;
#X connect 5 0 12 0;
#X connect 5 0 13 0;
#X connect 5 0 14 0;
#X connect 5 0 15 0;
#X connect 5 0 16 0;
#X connect 5 0 17 0;
#X connect 5 0 18 0;
#X connect 5 0 19 0;
#X connect 5 0 20 0;
#X connect 5 0 21 0;
#X connect 5 0 22 0;
#X connect 5 0 23 0;
#X connect 5 0 24 0;
#X connect 5 0 25 0;
#X connect 5 0 26 0;
#X connect 5 0 27 0;
#X connect 5 0 28 0;
#X connect 5 0 29 0;
#X connect 5 0 30 0;
#X connect 5 0 31 0;
#X connect 5 0 32 0;
#X connect 6 0 35 0;
#X connect 7 0 8 0;
#X connect 8 0 9 0;
#X connect 9 0 1 0;
#X connect 9 1 2 0;
#X connect 9 2 3 0;
#X connect 34 0 33 1;
#X connect 35 0 0 0;
#X connect 35 0 33 0;
