#N canvas 125 132 439 432 10;
#X obj 99 8 inlet;
#X obj 244 55 inlet;
#X obj 136 360 outlet;
#X obj 80 252 -;
#X obj 256 130 / 2;
#X obj 244 89 * 1000;
#X obj 83 216 random;
#X obj 80 280 / 1000;
#X obj 99 33 tgl 15 0 empty empty empty 17 7 0 10 -262144 -1 -1 0 1
;
#X obj 93 123 spigot;
#X obj 96 55 t f f;
#X obj 81 91 sel 1;
#X obj 300 215 random;
#X obj 164 56 inlet;
#X text 255 25 value;
#X obj 206 56 inlet;
#X text 170 28 min;
#X text 212 29 max;
#X obj 183 97 --;
#X obj 323 34 f \$2;
#X obj 322 3 loadbang;
#X obj 301 241 +;
#X obj 291 35 f \$1;
#X obj 300 297 del;
#X obj 301 268 clip 10 100000;
#X obj 175 344 line;
#X obj 170 309 pack 0 0;
#X obj 93 160 t b b;
#X obj 360 39 f \$3;
#X connect 0 0 8 0;
#X connect 1 0 5 0;
#X connect 3 0 7 0;
#X connect 4 0 3 1;
#X connect 5 0 6 1;
#X connect 5 0 4 0;
#X connect 6 0 3 0;
#X connect 7 0 26 0;
#X connect 8 0 10 0;
#X connect 9 0 27 0;
#X connect 10 0 11 0;
#X connect 10 1 9 1;
#X connect 11 0 9 0;
#X connect 12 0 21 0;
#X connect 13 0 18 1;
#X connect 13 0 21 1;
#X connect 15 0 18 0;
#X connect 18 0 12 1;
#X connect 19 0 18 0;
#X connect 20 0 19 0;
#X connect 20 0 22 0;
#X connect 20 0 28 0;
#X connect 21 0 24 0;
#X connect 22 0 18 1;
#X connect 22 0 21 1;
#X connect 23 0 9 0;
#X connect 24 0 23 0;
#X connect 24 0 26 1;
#X connect 25 0 2 0;
#X connect 26 0 25 0;
#X connect 27 0 6 0;
#X connect 27 1 12 0;
#X connect 28 0 5 0;
